<svg version="1.1" baseProfile="full" width="700" height="650" xmlns="http://www.w3.org/2000/svg" xmlns:xlink="http://www.w3.org/1999/xlink">

  <style type="text/css" >
    <![CDATA[

      .rowText {
        font-family: Ubuntu;
        font-weight: 400;
        font-size: 16pt;
        font-style: normal;
        text-anchor: end;
        fill: black;
      }

      .columnText {
        font-family: Ubuntu;
        font-weight: 400;
        font-size: 12pt;
        font-style: normal;
        text-anchor: start;
        fill: black;
      }

      .untouched {
        fill: white;
        stroke: black;
        stroke-width: 0.5;

      }

      .inProgress {
        fill: gray;
        stroke: black;
        stroke-width: 0.5;

      }

      .finished {
        fill: black;
        stroke: black;
        stroke-width: 0.5;

      }

      .highlight {
        opacity: 0;
        fill: lightblue;
        fill-opacity: 0.25;
        stroke: black;
        stroke-width: 0.5;
        stroke-opacity: 0.5;
      }

      .highlight:hover {
        opacity: 1;
      }
    ]]>
  </style>


  <rect width="100%" height="100%" style="fill:none;"></rect>

  <g transform="translate(0, 75)">

    <g id="leftGroup" transform="translate(180, 0)">

      <g transform="translate(15,-10)">
        <text x="0" y="0" transform="translate(0,0) rotate(-45)" class="columnText">Zueignung</text>
        <text x="0" y="0" transform="translate(25,0) rotate(-45)" class="columnText">Vorspiel</text>
        <text x="0" y="0" transform="translate(50,0) rotate(-45)" class="columnText">Prolog</text>
        <text x="0" y="0" transform="translate(75,0) rotate(-45)" class="columnText">Faust I</text>
      </g>

      <g transform="translate(0,0)">
        <text x="-10" y="27.5" class="rowText">bis 1806</text>
        <rect x="0" y="0" width="22.5" height="40" class="finished"></rect>
        <rect x="25" y="0" width="22.5" height="40" class="finished"></rect>
        <rect x="50" y="0" width="22.5" height="40" class="finished"></rect>
        <rect x="75" y="0" width="22.5" height="40" class="finished"></rect>
      </g>
      <g transform="translate(0, 75)">
        <text x="-10" y="27.5" class="rowText">1797 bis 1801</text>
        <rect x="0" y="0" width="22.5" height="40" class="finished"></rect>
        <rect x="25" y="0" width="22.5" height="40" class="finished"></rect>
        <rect x="50" y="0" width="22.5" height="40" class="finished"></rect>
        <rect x="75" y="0" width="22.5" height="40" class="inProgress"></rect>
      </g>
      <g transform="translate(0, 150)">
        <text x="-10" y="27.5" class="rowText">bis 1790</text>
        <rect x="0" y="0" width="22.5" height="40" class="untouched"></rect>
        <rect x="25" y="0" width="22.5" height="40" class="untouched"></rect>
        <rect x="50" y="0" width="22.5" height="40" class="untouched"></rect>
        <rect x="75" y="0" width="22.5" height="40" class="inProgress"></rect>
      </g>
      <g transform="translate(0, 225)">
        <text x="-10" y="27.5" class="rowText">bis 1775</text>
        <rect x="0" y="0" width="22.5" height="40" class="untouched"></rect>
        <rect x="25" y="0" width="22.5" height="40" class="untouched"></rect>
        <rect x="50" y="0" width="22.5" height="40" class="untouched"></rect>
        <rect x="75" y="0" width="22.5" height="40" class="inProgress"></rect>
      </g>

      <a xlink:href="genesis_faust_i.php">
        <rect x="-180" y="-5" width="300" height="575" class="highlight show-tooltip" tooltipText="zu Faust I"></rect>
      </a>

    </g>

    <g id="rightGroup" transform="translate(505, 0)">

      <g transform="translate(10,-10)">
        <text x="0" y="0" transform="translate(0,0) rotate(-45)" class="columnText">Akt I</text>
        <text x="0" y="0" transform="translate(25,0) rotate(-45)" class="columnText">Akt II</text>
        <text x="0" y="0" transform="translate(50,0) rotate(-45)" class="columnText">Akt III</text>
        <text x="0" y="0" transform="translate(75,0) rotate(-45)" class="columnText">Akt IV</text>
        <text x="0" y="0" transform="translate(100,0) rotate(-45)" class="columnText">Akt V</text>
      </g>

      <g transform="translate(0,0)">
        <text x="-10" y="27.5" class="rowText">1831</text>
        <rect x="0" y="0" width="22.5" height="40" class="finished"></rect>
        <rect x="25" y="0" width="22.5" height="40" class="finished"></rect>
        <rect x="50" y="0" width="22.5" height="40" class="finished"></rect>
        <rect x="75" y="0" width="22.5" height="40" class="finished"></rect>
        <rect x="100" y="0" width="22.5" height="40" class="finished"></rect>
      </g>
      <g transform="translate(0,75)">
        <text x="-10" y="27.5" class="rowText">1830</text>
        <rect x="0" y="0" width="22.5" height="40" class="finished"></rect>
        <rect x="25" y="0" width="22.5" height="40" class="finished"></rect>
        <rect x="50" y="0" width="22.5" height="40" class="finished"></rect>
        <rect x="75" y="0" width="22.5" height="40" class="inProgress"></rect>
        <rect x="100" y="0" width="22.5" height="40" class="inProgress"></rect>
      </g>
      <g transform="translate(0,150)">
        <text x="-10" y="27.5" class="rowText">1829</text>
        <rect x="0" y="0" width="22.5" height="40" class="inProgress"></rect>
        <rect x="25" y="0" width="22.5" height="40" class="inProgress"></rect>
        <rect x="50" y="0" width="22.5" height="40" class="finished"></rect>
        <rect x="75" y="0" width="22.5" height="40" class="inProgress"></rect>
        <rect x="100" y="0" width="22.5" height="40" class="inProgress"></rect>
      </g>
      <g transform="translate(0,225)">
        <text x="-10" y="27.5" class="rowText">1828</text>
        <rect x="0" y="0" width="22.5" height="40" class="inProgress"></rect>
        <rect x="25" y="0" width="22.5" height="40" class="inProgress"></rect>
        <rect x="50" y="0" width="22.5" height="40" class="finished"></rect>
        <rect x="75" y="0" width="22.5" height="40" class="inProgress"></rect>
        <rect x="100" y="0" width="22.5" height="40" class="inProgress"></rect>
      </g>
      <g transform="translate(0,300)">
        <text x="-10" y="27.5" class="rowText">1827</text>
        <rect x="0" y="0" width="22.5" height="40" class="inProgress"></rect>
        <rect x="25" y="0" width="22.5" height="40" class="inProgress"></rect>
        <rect x="50" y="0" width="22.5" height="40" class="finished"></rect>
        <rect x="75" y="0" width="22.5" height="40" class="untouched"></rect>
        <rect x="100" y="0" width="22.5" height="40" class="inProgress"></rect>
      </g>
      <g transform="translate(0,375)">
        <text x="-10" y="27.5" class="rowText">1826</text>
        <rect x="0" y="0" width="22.5" height="40" class="inProgress"></rect>
        <rect x="25" y="0" width="22.5" height="40" class="untouched"></rect>
        <rect x="50" y="0" width="22.5" height="40" class="finished"></rect>
        <rect x="75" y="0" width="22.5" height="40" class="untouched"></rect>
        <rect x="100" y="0" width="22.5" height="40" class="inProgress"></rect>
      </g>
      <g transform="translate(0,450)">
        <text x="-10" y="27.5" class="rowText">1825</text>
        <rect x="0" y="0" width="22.5" height="40" class="inProgress"></rect>
        <rect x="25" y="0" width="22.5" height="40" class="untouched"></rect>
        <rect x="50" y="0" width="22.5" height="40" class="inProgress"></rect>
        <rect x="75" y="0" width="22.5" height="40" class="untouched"></rect>
        <rect x="100" y="0" width="22.5" height="40" class="inProgress"></rect>
      </g>
      <g transform="translate(0,525)">
        <text x="-10" y="27.5" class="rowText">vor 1825</text>
        <rect x="0" y="0" width="22.5" height="40" class="inProgress"></rect>
        <rect x="25" y="0" width="22.5" height="40" class="untouched"></rect>
        <rect x="50" y="0" width="22.5" height="40" class="inProgress"></rect>
        <rect x="75" y="0" width="22.5" height="40" class="untouched"></rect>
        <rect x="100" y="0" width="22.5" height="40" class="inProgress"></rect>
      </g>

      <a xlink:href="genesis_faust_ii.php">
        <rect x="-140" y="-5" width="300" height="575" class="highlight show-tooltip" tooltipText="zu Faust II"></rect>
      </a>

    </g>
  </g>

</svg>
