<?xml version="1.0" encoding="utf-8"?>
<!DOCTYPE svg PUBLIC "-//W3C//DTD SVG 1.1//EN" "http://www.w3.org/Graphics/SVG/1.1/DTD/svg11.dtd">
<svg version="1.1"
	 id="svg2" xmlns:dc="http://purl.org/dc/elements/1.1/" xmlns:cc="http://creativecommons.org/ns#" xmlns:rdf="http://www.w3.org/1999/02/22-rdf-syntax-ns#" xmlns:svg="http://www.w3.org/2000/svg" xmlns:sodipodi="http://sodipodi.sourceforge.net/DTD/sodipodi-0.dtd" xmlns:inkscape="http://www.inkscape.org/namespaces/inkscape" sodipodi:docname="Neues Dokument 1" inkscape:version="0.48+devel r10194"
	 xmlns="http://www.w3.org/2000/svg" xmlns:xlink="http://www.w3.org/1999/xlink" x="0px" y="0px" width="440px" height="100px"
	 viewBox="-51.938 -19.768 440 100" enable-background="new -51.938 -19.768 440 100" xml:space="preserve">
<sodipodi:namedview  fit-margin-left="10" fit-margin-top="10" showgrid="false" inkscape:cy="35.523911" inkscape:cx="161.48507" inkscape:zoom="0.98994949" borderopacity="1.0" bordercolor="#666666" pagecolor="#ffffff" id="base" inkscape:document-units="px" inkscape:pageshadow="2" inkscape:pageopacity="0.0" inkscape:window-maximized="0" inkscape:window-y="266" inkscape:window-x="878" inkscape:window-height="435" inkscape:window-width="475" fit-margin-right="10" fit-margin-bottom="10" inkscape:current-layer="layer1">
	</sodipodi:namedview>
<g id="layer1" transform="translate(-217.15179,-679.27335)" inkscape:label="Ebene 1" inkscape:groupmode="layer">
	<g id="g22" transform="matrix(0.125,0,0,-0.125,227.15179,729.73673)">
		<g>
			<g id="g24">
				<path id="path30" inkscape:connector-curvature="0" fill="#2056AE" d="M-472-32.217h206.469
					c54.594,0,102.027,11.727,135.66,41.375c33.629,29.633,54.25,77.555,54.293,151.961c-0.027,79.914-19.27,128.449-51.293,157.188
					c-32.023,28.773-77.875,38.43-132.594,38.418v0.012H-472V272.74h180.016c27.273,0.141,45.922-9.527,56.457-28.246
					c10.57-18.574,13.738-45,13.773-79.387c-0.035-33.262-2.93-59.379-13.266-77.965c-10.316-18.695-28.84-28.711-56.414-28.547
					h-41.012v137.684H-472V-32.217"/>
				<path id="path32" inkscape:connector-curvature="0" fill="#2056AE" d="M-45.27-32.217H94.277v141.086h173.863v87.41H94.277
					v76.461h173.863v83.996H-45.27V-32.217"/>
				<path id="path34" inkscape:connector-curvature="0" fill="#2056AE" d="M364.238,314.501
					c-41.227-32.617-67.289-81.102-67.344-146.555c0.055-69.875,25.137-121.234,65.789-155.531
					c40.68-34.289,97.305-51.453,160.52-51.453c59.211,0.008,105.988,5.969,155.219,20.578v179.473H559.836V56.478l-2.625-1.016
					c-9.969-3.805-22.402-3.641-32.906-3.695c-30.578-0.086-52.363,12.703-65.738,32.523
					c-13.398,19.781-18.785,46.156-18.813,73.988c-0.027,37.004,12.543,65.977,34.813,85.359
					c22.258,19.379,53.746,29.102,91.086,29.102c38.188,0,68.281-8.598,89.695-19.875v96.766
					c-35.27,8.617-62.102,13.902-132.145,13.922h-0.023C462.184,363.552,405.48,347.08,364.238,314.501"/>
				<path id="path36" inkscape:connector-curvature="0" fill="#2056AE" d="M891.18,226.326h11.371
					c42.258-0.941,63.957,19.176,65.047,60.34c-0.324,21.641-5.762,36.914-16.313,45.801c-10.742,8.48-24.074,12.672-40.004,12.531
					H891.18V226.326z M877.586,357.208h34.313c24.609-0.27,42.418-6.883,53.414-19.832c10.727-13.012,16.023-30.172,15.883-51.473
					c-0.246-25.566-7.75-43.949-22.488-55.16c-14.531-11.086-33.504-16.629-56.898-16.629h-24.223V357.208"/>
				<path id="path38" inkscape:connector-curvature="0" fill="#2056AE" d="M1075.938,273.681c0,9.605-1.934,18-5.813,25.191
					c-4.09,7.246-10.816,11.012-20.133,11.277c-9.137-0.266-16.367-4.094-21.68-11.48c-5.445-7.461-8.164-15.777-8.164-24.988
					H1075.938z M1082.016,217.365c-9.508-3.711-19.305-5.617-29.387-5.758c-16.559,0.332-28.414,5.605-35.609,15.824
					c-7.105,10.012-10.602,22.992-10.465,38.953c0.137,16.293,4.105,29.477,11.922,39.555c7.559,10.012,17.813,15.082,30.734,15.219
					c14.148-0.266,24.492-5.414,31.02-15.422c6.203-9.809,9.32-21.953,9.32-36.449v-6.602h-69.402
					c0-11.383,2.859-20.754,8.551-28.117c5.559-7.836,13.859-11.813,24.863-11.949c4.926,0,10.098,0.91,15.531,2.711
					c5.445,1.469,9.754,3.184,12.922,5.121V217.365"/>
				<path id="path40" inkscape:connector-curvature="0" fill="#2056AE" d="M1195.57,238.74c-0.137-7.945,0.152-16.145,0.863-24.625
					h-12.113v18.621h-0.402c-0.902-2.273-2.164-4.578-3.77-6.914c-1.551-2.465-3.594-4.801-6.105-7
					c-2.527-2.07-5.641-3.707-9.402-4.91c-3.676-1.531-8.164-2.305-13.457-2.305c-12.281,0.141-21.117,3.977-26.547,11.523
					c-5.426,7.406-8.082,16.992-7.949,28.738v66.781h12.391v-63.555c0-10.023,1.922-17.836,5.738-23.453
					c3.754-6.012,9.875-9.023,18.355-9.023c5.695,0,10.527,1.242,14.465,3.707c4.02,2.348,7.063,5.34,9.137,9.027
					c2.387,3.805,4.047,7.91,4.938,12.324c0.988,4.344,1.469,8.715,1.469,13.133v57.84h12.391V238.74"/>
				<path id="path42" inkscape:connector-curvature="0" fill="#2056AE" d="M1274.281,307.654h-23.02v-67.789
					c0-4.813,1.059-8.855,3.195-12.137c1.953-3.406,5.383-5.109,10.309-5.109c4.527,0,8.383,0.836,11.547,2.508l0.781-10.637
					c-1.477-0.523-3.531-1.125-6.199-1.789c-2.77-0.719-5.805-1.094-9.094-1.094c-5.418,0-9.719,0.977-12.867,2.906
					c-3.051,1.941-5.34,4.469-6.879,7.609c-1.355,3.281-2.223,6.949-2.621,11.02c-0.387,4.141-0.59,8.617-0.59,13.422v61.09h-19.84
					v10.996h19.84v25.234l12.418,4.512V318.65h23.02V307.654"/>
				<path id="path44" inkscape:connector-curvature="0" fill="#2056AE" d="M1291.281,229.24c7.672-4.277,16.461-6.484,26.344-6.621
					c6.258,0,11.539,1.703,15.875,5.109c4.258,3.141,6.469,7.656,6.594,13.531c-0.125,6.215-2.586,11.102-7.375,14.641
					c-4.766,3.41-10.422,6.484-16.859,9.219c-3.047,1.48-5.953,3.043-8.727,4.715c-2.773,1.676-5.438,3.508-7.945,5.512
					c-2.273,2.207-4.133,4.75-5.625,7.621c-1.43,2.734-2.133,5.938-2.133,9.625c0.125,10.418,3.547,17.805,10.258,22.148
					c6.531,4.277,14.094,6.418,22.672,6.418c2.914,0,6.688-0.266,11.344-0.793c4.586-0.805,9.117-2.09,13.656-3.879l-1.172-11.246
					c-7.32,3.141-14.828,4.781-22.523,4.91c-6.469,0-11.617-1.199-15.438-3.602c-1.992-1.273-3.547-3.012-4.648-5.219
					c-1.156-2.133-1.758-5.008-1.758-8.621c0-2.145,0.75-4.18,2.242-6.121c1.414-1.797,3.32-3.43,5.719-4.906
					c2.406-1.406,5.109-2.844,8.148-4.313c3.039-1.402,6.016-2.902,8.922-4.5c6.602-2.883,12.344-6.723,17.281-11.535
					c4.906-4.813,7.422-11.457,7.578-19.949c0-5.484-1.094-10.055-3.211-13.73c-2.258-3.816-5.102-6.879-8.516-9.219
					c-7.422-4.543-15.289-6.828-23.609-6.828c-9.75,0-19.172,1.664-28.258,4.965L1291.281,229.24"/>
				<path id="path46" inkscape:connector-curvature="0" fill="#2056AE" d="M1444.695,304.833c-7.172,3.41-14.406,5.188-21.727,5.316
					c-12.172-0.129-21.477-4.148-27.945-12.039c-6.797-8.102-10.188-18.684-10.188-31.727c0-12.18,3.32-22.395,10-30.617
					c6.469-8.637,15.398-13.012,26.789-13.148c7.813,0,15.438,1.574,22.898,4.715l1.148-12.051
					c-8.203-2.582-16.867-3.805-25.977-3.676c-16.273,0.332-28.406,5.875-36.336,16.625c-8.086,10.551-12.125,23.273-12.125,38.152
					c0.141,16.563,4.75,29.746,13.859,39.555c9.055,10.012,21.094,15.082,36.156,15.219c6.203,0,11.352-0.461,15.5-1.391
					c2.141-0.398,3.977-0.828,5.531-1.289c1.492-0.523,2.625-0.984,3.391-1.383L1444.695,304.833"/>
				<path id="path48" inkscape:connector-curvature="0" fill="#2056AE" d="M1469.859,367.916h12.406v-66.801h0.383
					c2.781,5.852,6.891,10.695,12.305,14.555c5.438,3.527,11.828,5.352,19.203,5.488c13.492-0.137,22.703-4.242,27.633-12.316
					c4.766-8.211,7.094-18.93,6.945-32.145v-62.582h-12.391v62.453c0,4.609-0.258,8.992-0.773,13.129
					c-0.578,3.945-1.711,7.418-3.406,10.43c-3.156,6.551-9.813,9.895-19.898,10.023c-10.867-0.266-18.641-4.578-23.305-12.938
					c-4.594-8.352-6.836-17.367-6.695-27.066v-56.031h-12.406V367.916"/>
				<path id="path50" inkscape:connector-curvature="0" fill="#2056AE" d="M1645.688,273.681c0,9.605-1.938,18-5.828,25.191
					c-4.086,7.246-10.797,11.012-20.117,11.277c-9.148-0.266-16.359-4.094-21.688-11.48c-5.438-7.461-8.156-15.777-8.156-24.988
					H1645.688z M1651.758,217.365c-9.5-3.711-19.297-5.617-29.383-5.758c-16.547,0.332-28.43,5.605-35.609,15.824
					c-7.117,10.012-10.609,22.992-10.469,38.953c0.133,16.293,4.102,29.477,11.914,39.555c7.563,10.012,17.805,15.082,30.758,15.219
					c14.148-0.266,24.484-5.414,31-15.422c6.203-9.809,9.328-21.953,9.328-36.449v-6.602h-69.398
					c0-11.383,2.852-20.754,8.531-28.117c5.57-7.836,13.867-11.813,24.867-11.949c4.93,0,10.102,0.91,15.547,2.711
					c5.43,1.469,9.75,3.184,12.914,5.121V217.365"/>
				<path id="path52" inkscape:connector-curvature="0" fill="#2056AE" d="M876.984,111.103h65.863V98.9h-52.266V47.72h49.84V35.525
					h-49.84v-67.5h-13.598V111.103"/>
				<path id="path54" inkscape:connector-curvature="0" fill="#2056AE" d="M974.188,20.291c0-12.453,2.918-22.719,8.75-30.813
					c5.574-8.5,13.887-12.82,24.906-12.953c11.016,0.133,19.441,4.453,25.289,12.953c5.566,8.094,8.363,18.359,8.363,30.813
					c0,12.516-2.797,22.922-8.363,31.219c-5.848,8.234-14.273,12.414-25.289,12.539c-11.02-0.125-19.332-4.305-24.906-12.539
					C977.105,43.212,974.188,32.806,974.188,20.291z M960.59,20.291c0,14.883,3.84,27.602,11.539,38.141
					c7.625,10.82,19.508,16.367,35.672,16.641c16.414-0.273,28.461-5.82,36.141-16.641c7.441-10.539,11.152-23.258,11.152-38.141
					c0-14.617-3.711-27.266-11.152-37.945c-7.68-10.875-19.727-16.492-36.141-16.828c-16.164,0.336-28.047,5.953-35.672,16.828
					C964.43-6.975,960.59,5.673,960.59,20.291"/>
				<path id="path56" inkscape:connector-curvature="0" fill="#2056AE" d="M1082.457,49.236c0,9.664-0.262,17.438-0.785,23.32
					h12.422V52.541h0.367c2.402,6.141,5.762,11.383,10.098,15.719c4.266,4.398,9.578,6.672,15.902,6.813
					c3.309-0.141,6.219-0.539,8.727-1.203V60.447c-2.773,0.805-5.816,1.203-9.105,1.203c-4.914-0.133-8.961-1.359-12.129-3.711
					c-3.176-2.469-5.77-5.813-7.758-10.023c-1.891-4.141-3.211-8.586-3.977-13.336c-0.922-5.07-1.371-10.008-1.371-14.82v-51.734
					h-12.391V49.236"/>
				<path id="path58" inkscape:connector-curvature="0" fill="#2056AE" d="M1142.965-16.85c7.699-4.289,16.465-6.492,26.355-6.625
					c6.258,0,11.555,1.703,15.875,5.117c4.273,3.125,6.465,7.641,6.602,13.523c-0.137,6.219-2.594,11.094-7.367,14.633
					c-4.789,3.422-10.414,6.484-16.879,9.227c-3.043,1.461-5.938,3.047-8.727,4.711c-2.77,1.672-5.418,3.516-7.941,5.516
					c-2.266,2.203-4.133,4.75-5.629,7.617c-1.41,2.742-2.125,5.945-2.125,9.633c0.137,10.422,3.551,17.805,10.262,22.148
					c6.52,4.273,14.082,6.422,22.668,6.422c2.91,0,6.699-0.273,11.332-0.805c4.586-0.797,9.125-2.094,13.668-3.883l-1.168-11.234
					c-7.324,3.133-14.828,4.773-22.527,4.898c-6.477,0-11.625-1.188-15.434-3.602c-2.004-1.273-3.555-3-4.652-5.211
					c-1.168-2.141-1.758-5.016-1.758-8.617c0-2.141,0.754-4.18,2.234-6.117c1.43-1.813,3.324-3.453,5.723-4.914
					c2.402-1.406,5.105-2.836,8.148-4.305c3.051-1.406,6.012-2.914,8.918-4.523c6.613-2.867,12.363-6.711,17.273-11.516
					c4.934-4.813,7.441-11.477,7.578-19.961c0-5.477-1.07-10.055-3.184-13.727c-2.277-3.805-5.117-6.883-8.535-9.219
					c-7.426-4.547-15.281-6.82-23.602-6.82c-9.738,0-19.18,1.648-28.262,4.953L1142.965-16.85"/>
				<path id="path60" inkscape:connector-curvature="0" fill="#2056AE" d="M1296.406,58.736c-7.188,3.414-14.422,5.188-21.742,5.313
					c-12.168-0.125-21.48-4.133-27.945-12.039c-6.789-8.102-10.195-18.672-10.195-31.719c0-12.172,3.352-22.391,10.008-30.625
					c6.473-8.625,15.391-13.008,26.781-13.141c7.828,0,15.445,1.578,22.898,4.719l1.156-12.063
					c-8.211-2.57-16.852-3.805-25.977-3.664c-16.273,0.336-28.402,5.883-36.344,16.625c-8.086,10.547-12.121,23.258-12.121,38.148
					c0.141,16.539,4.75,29.727,13.863,39.555c9.055,10.016,21.098,15.086,36.164,15.227c6.203,0,11.359-0.477,15.508-1.398
					c2.133-0.406,3.977-0.836,5.516-1.281c1.484-0.539,2.617-1,3.391-1.398L1296.406,58.736"/>
				<path id="path62" inkscape:connector-curvature="0" fill="#2056AE" d="M1321.57,121.83h12.391V55.025h0.391
					c2.773,5.852,6.883,10.703,12.305,14.547c5.422,3.523,11.82,5.359,19.188,5.5c13.516-0.141,22.727-4.25,27.633-12.328
					c4.789-8.203,7.109-18.922,6.969-32.141v-62.578h-12.406v62.453c0,4.609-0.242,8.984-0.758,13.133
					c-0.578,3.93-1.719,7.414-3.406,10.414c-3.18,6.563-9.813,9.898-19.898,10.023c-10.883-0.266-18.648-4.563-23.328-12.93
					c-4.586-8.344-6.836-17.375-6.688-27.063v-56.031h-12.391V121.83"/>
				<path id="path64" inkscape:connector-curvature="0" fill="#2056AE" d="M1514.5-7.35c-0.141-7.945,0.148-16.156,0.852-24.625
					h-12.109v18.609h-0.383c-0.922-2.266-2.188-4.578-3.789-6.906c-1.555-2.461-3.578-4.813-6.102-7.008
					c-2.523-2.055-5.633-3.695-9.406-4.898c-3.664-1.531-8.156-2.305-13.453-2.305c-12.273,0.133-21.117,3.977-26.555,11.523
					c-5.422,7.406-8.078,16.969-7.938,28.727v66.789h12.398V9.009c0-10.039,1.906-17.852,5.734-23.469
					c3.742-6.016,9.875-9.016,18.344-9.016c5.703,0,10.523,1.234,14.469,3.703c4.008,2.344,7.063,5.344,9.133,9.031
					c2.391,3.805,4.055,7.922,4.945,12.328c0.984,4.344,1.461,8.719,1.461,13.133v57.836h12.398V-7.35"/>
				<path id="path66" inkscape:connector-curvature="0" fill="#2056AE" d="M1549.68,48.033c0,8.008-0.258,16.18-0.797,24.523H1561
					V53.955h0.383c1.148,2.461,2.555,4.93,4.156,7.391c1.547,2.477,3.516,4.695,5.906,6.711c2.508,2.203,5.609,3.938,9.297,5.203
					c3.742,1.211,8.156,1.813,13.25,1.813c12.453-0.141,21.406-3.992,26.805-11.523c5.18-7.344,7.75-16.883,7.75-28.633v-66.891
					h-12.398v63.648c0,9.961-1.766,17.883-5.328,23.766c-3.891,5.609-10.141,8.484-18.734,8.609
					c-11.148-0.266-18.977-4.344-23.5-12.219c-2.336-3.75-3.984-7.797-4.977-12.133c-1.023-4.547-1.539-9.156-1.539-13.828v-57.844
					h-12.391V48.033"/>
				<path id="path68" inkscape:connector-curvature="0" fill="#2056AE" d="M1671.313,20.291
					c-0.164-10.703,2.086-20.086,6.695-28.117c4.539-8.508,12.047-12.883,22.563-13.148c11.281,0.266,19.289,4.781,24.023,13.563
					c4.523,8.484,6.805,17.719,6.805,27.703c0,13.047-2.109,23.555-6.32,31.516c-4.406,8.039-12.32,12.117-23.742,12.242
					c-5.953,0-10.82-1.297-14.563-3.914c-3.836-2.406-6.945-5.805-9.344-10.234c-2.141-4.086-3.719-8.734-4.758-13.945
					C1671.75,30.736,1671.313,25.501,1671.313,20.291L1671.313,20.291z M1743.797-23.381c0-14.883-3.508-27.328-10.484-37.344
					c-7.305-10.078-19.609-15.242-36.93-15.508c-6.648,0.125-12.766,0.859-18.328,2.188c-5.414,1.398-9.531,2.484-12.313,3.289
					l1.078,12.844c8.336-4.625,18.281-7.055,29.82-7.32c8.094,0.125,14.414,1.633,19.023,4.5c4.789,2.734,8.313,6.57,10.594,11.5
					c2.391,4.922,3.914,10.594,4.555,17c0.539,6.398,0.781,13.297,0.781,20.703h-0.398c-7.156-13.898-17.406-20.727-30.727-20.445
					c-15.898,0.398-27.039,6.258-33.359,17.609c-3.359,5.211-5.695,10.82-6.984,16.836c-1.625,6-2.422,11.938-2.422,17.82
					c-0.125,16.281,3.125,29.398,9.797,39.352c6.586,10.141,17.219,15.289,31.906,15.43c6.641,0,12.5-0.766,17.531-2.297
					c4.859-1.867,9.547-5.828,14.086-11.93h0.375v11.75l12.398-0.039V-23.381"/>
				<path id="path70" inkscape:connector-curvature="0" fill="#2056AE" d="M1769.977-16.85c7.703-4.289,16.492-6.492,26.375-6.625
					c6.25,0,11.539,1.703,15.859,5.117c4.273,3.125,6.477,7.641,6.609,13.523c-0.133,6.219-2.594,11.094-7.375,14.633
					c-4.781,3.422-10.414,6.484-16.875,9.227c-3.023,1.461-5.938,3.047-8.703,4.711c-2.789,1.672-5.445,3.516-7.969,5.516
					c-2.258,2.203-4.125,4.75-5.625,7.617c-1.414,2.742-2.125,5.945-2.125,9.633c0.133,10.422,3.563,17.805,10.273,22.148
					c6.516,4.273,14.063,6.422,22.656,6.422c2.922,0,6.695-0.273,11.344-0.805c4.586-0.797,9.133-2.094,13.656-3.883l-1.156-11.234
					c-7.32,3.133-14.828,4.773-22.531,4.898c-6.477,0-11.625-1.188-15.438-3.602c-1.992-1.273-3.563-3-4.648-5.211
					c-1.172-2.141-1.758-5.016-1.758-8.617c0-2.141,0.75-4.18,2.227-6.117c1.438-1.813,3.344-3.453,5.727-4.914
					c2.398-1.406,5.117-2.836,8.141-4.305c3.047-1.406,6.023-2.914,8.945-4.523c6.602-2.867,12.344-6.711,17.258-11.516
					c4.93-4.813,7.438-11.477,7.563-19.961c0-5.477-1.07-10.055-3.172-13.727c-2.273-3.805-5.102-6.883-8.531-9.219
					c-7.414-4.547-15.281-6.82-23.602-6.82c-9.742,0-19.188,1.648-28.266,4.953L1769.977-16.85"/>
				<path id="path72" inkscape:connector-curvature="0" fill="#2056AE" d="M1865.164,20.291
					c-0.148-10.703,2.086-20.086,6.695-28.117c4.539-8.508,12.07-12.883,22.57-13.148c11.281,0.266,19.273,4.781,24.031,13.563
					c4.523,8.484,6.797,17.719,6.797,27.703c0,13.047-2.117,23.555-6.32,31.516c-4.398,8.039-12.32,12.117-23.734,12.242
					c-5.961,0-10.828-1.297-14.578-3.914c-3.813-2.406-6.938-5.805-9.336-10.234c-2.148-4.086-3.719-8.734-4.773-13.945
					C1865.609,30.736,1865.164,25.501,1865.164,20.291L1865.164,20.291z M1937.648-23.381c0-14.883-3.492-27.328-10.484-37.344
					c-7.289-10.078-19.602-15.242-36.914-15.508c-6.656,0.125-12.773,0.859-18.328,2.188c-5.422,1.398-9.539,2.484-12.305,3.289
					l1.07,12.844c8.336-4.625,18.289-7.055,29.813-7.32c8.07,0.125,14.414,1.633,19.023,4.5c4.789,2.734,8.32,6.57,10.594,11.5
					c2.391,4.922,3.906,10.594,4.563,17c0.523,6.398,0.773,13.297,0.773,20.703h-0.398c-7.156-13.898-17.406-20.727-30.734-20.445
					c-15.906,0.398-27.031,6.258-33.352,17.609c-3.367,5.211-5.695,10.82-6.992,16.836c-1.609,6-2.398,11.938-2.398,17.82
					c-0.156,16.281,3.109,29.398,9.797,39.352c6.578,10.141,17.188,15.289,31.898,15.43c6.633,0,12.5-0.766,17.523-2.297
					c4.859-1.867,9.539-5.828,14.063-11.93h0.398v11.75l12.391-0.039V-23.381"/>
				<path id="path74" inkscape:connector-curvature="0" fill="#2056AE" d="M2033.414,27.595c0,9.594-1.945,17.992-5.828,25.18
					c-4.094,7.258-10.805,11.008-20.133,11.273c-9.141-0.266-16.359-4.086-21.68-11.477c-5.445-7.453-8.164-15.789-8.164-24.977
					H2033.414z M2039.477-28.741c-9.492-3.695-19.289-5.609-29.383-5.742c-16.57,0.336-28.43,5.609-35.602,15.82
					c-7.125,10.016-10.625,22.992-10.484,38.953c0.141,16.281,4.109,29.461,11.93,39.555c7.547,10.016,17.805,15.086,30.727,15.227
					c14.172-0.273,24.5-5.414,31.016-15.43c6.211-9.805,9.328-21.961,9.328-36.445v-6.602h-69.398
					c0-11.383,2.852-20.766,8.547-28.125c5.563-7.828,13.859-11.813,24.859-11.945c4.93,0,10.094,0.898,15.539,2.711
					c5.445,1.469,9.758,3.172,12.922,5.117V-28.741"/>
				<path id="path76" inkscape:connector-curvature="0" fill="#2056AE" d="M2198.406-31.975v69.57c0,3.867-0.266,7.445-0.805,10.727
					c-0.805,3.133-2.133,5.875-3.953,8.211c-1.609,2.414-3.859,4.313-6.773,5.727c-2.898,1.188-6.5,1.789-10.828,1.789
					c-7.266,0-13.766-3-19.414-9.016c-5.797-6.281-8.773-16.016-8.906-29.164v-57.844h-12.398v69.57
					c0,3.867-0.305,7.445-0.914,10.727c-0.805,3.133-2.125,5.875-3.922,8.211c-1.633,2.414-3.891,4.313-6.789,5.727
					c-2.906,1.188-6.516,1.789-10.82,1.789c-7.305,0-13.766-3-19.438-9.016c-5.797-6.281-8.766-16.016-8.898-29.164v-57.844h-12.414
					v80c0,8.016-0.266,16.188-0.789,24.531h12.477V54.931l0.398-0.188c0.93,1.922,2.234,4.055,3.891,6.398
					c1.336,2.328,3.234,4.508,5.68,6.508c2.477,2.07,5.516,3.883,9.188,5.406c3.656,1.336,8.219,2.016,13.664,2.016
					c2.469,0,5.125-0.273,7.977-0.805c2.742-0.539,5.453-1.641,8.203-3.305c2.711-1.523,5.109-3.719,7.164-6.578
					c2.008-2.984,3.438-6.781,4.305-11.375h0.391c2.578,6.258,6.758,11.469,12.484,15.656c5.57,4.133,12.516,6.266,20.844,6.406
					c10.57-0.141,18.719-3.414,24.445-9.836c5.578-6.336,8.375-14.75,8.375-25.219v-71.992H2198.406"/>
				<path id="path78" inkscape:connector-curvature="0" fill="#2056AE" d="M2306.758,27.595c0,9.594-1.938,17.992-5.828,25.18
					c-4.078,7.258-10.789,11.008-20.125,11.273c-9.141-0.266-16.367-4.086-21.68-11.477c-5.445-7.453-8.156-15.789-8.156-24.977
					H2306.758z M2312.828-28.741c-9.5-3.695-19.289-5.609-29.391-5.742c-16.555,0.336-28.406,5.609-35.602,15.82
					c-7.109,10.016-10.602,22.992-10.477,38.953c0.156,16.281,4.109,29.461,11.93,39.555c7.563,10.016,17.805,15.086,30.734,15.227
					c14.148-0.273,24.492-5.414,31.023-15.43c6.195-9.805,9.313-21.961,9.313-36.445v-6.602h-69.391
					c0-11.383,2.844-20.766,8.539-28.125c5.563-7.828,13.859-11.813,24.867-11.945c4.93,0,10.102,0.898,15.523,2.711
					c5.453,1.469,9.766,3.172,12.93,5.117V-28.741"/>
				<path id="path80" inkscape:connector-curvature="0" fill="#2056AE" d="M2347.516,72.556h12.391V-31.975h-12.391V72.556z
					 M2359.906,100.494h-12.391v17.203h12.391V100.494"/>
				<path id="path82" inkscape:connector-curvature="0" fill="#2056AE" d="M2393.07,48.033c0,8.008-0.25,16.18-0.773,24.523h12.102
					V53.955h0.391c1.141,2.461,2.547,4.93,4.156,7.391c1.555,2.477,3.523,4.695,5.906,6.711c2.516,2.203,5.617,3.938,9.297,5.203
					c3.734,1.211,8.156,1.813,13.258,1.813c12.453-0.141,21.383-3.992,26.797-11.523c5.188-7.344,7.742-16.883,7.742-28.633v-66.891
					h-12.383v63.648c0,9.961-1.789,17.883-5.336,23.766c-3.891,5.609-10.141,8.484-18.75,8.609
					c-11.125-0.266-18.977-4.344-23.5-12.219c-2.336-3.75-3.984-7.797-4.953-12.133c-1.023-4.547-1.555-9.156-1.555-13.828v-57.844
					h-12.398V48.033"/>
				<path id="path84" inkscape:connector-curvature="0" fill="#2056AE" d="M2499.359-16.85c7.688-4.289,16.469-6.492,26.352-6.625
					c6.258,0,11.555,1.703,15.883,5.117c4.258,3.125,6.453,7.641,6.586,13.523c-0.133,6.219-2.57,11.094-7.367,14.633
					c-4.789,3.422-10.406,6.484-16.859,9.227c-3.047,1.461-5.961,3.047-8.727,4.711c-2.773,1.672-5.438,3.516-7.953,5.516
					c-2.25,2.203-4.141,4.75-5.617,7.617c-1.438,2.742-2.141,5.945-2.141,9.633c0.133,10.422,3.555,17.805,10.266,22.148
					c6.531,4.273,14.086,6.422,22.68,6.422c2.906,0,6.68-0.273,11.32-0.805c4.594-0.797,9.133-2.094,13.656-3.883l-1.156-11.234
					c-7.32,3.133-14.82,4.773-22.531,4.898c-6.461,0-11.609-1.188-15.438-3.602c-1.992-1.273-3.539-3-4.641-5.211
					c-1.164-2.141-1.758-5.016-1.758-8.617c0-2.141,0.742-4.18,2.242-6.117c1.414-1.813,3.32-3.453,5.727-4.914
					c2.375-1.406,5.102-2.836,8.125-4.305c3.055-1.406,6.023-2.914,8.938-4.523c6.602-2.867,12.352-6.711,17.281-11.516
					c4.906-4.813,7.43-11.477,7.555-19.961c0-5.477-1.07-10.055-3.188-13.727c-2.266-3.805-5.102-6.883-8.516-9.219
					c-7.43-4.547-15.289-6.82-23.617-6.82c-9.742,0-19.164,1.648-28.258,4.953L2499.359-16.85"/>
				<path id="path86" inkscape:connector-curvature="0" fill="#2056AE" d="M2652.789,58.736c-7.172,3.414-14.422,5.188-21.727,5.313
					c-12.18-0.125-21.484-4.133-27.961-12.039c-6.797-8.102-10.18-18.672-10.18-31.719c0-12.172,3.344-22.391,9.992-30.625
					c6.469-8.625,15.391-13.008,26.797-13.141c7.82,0,15.453,1.578,22.883,4.719l1.148-12.063
					c-8.188-2.57-16.844-3.805-25.953-3.664c-16.281,0.336-28.391,5.883-36.359,16.625c-8.07,10.547-12.102,23.258-12.102,38.148
					c0.133,16.539,4.742,29.727,13.852,39.555c9.07,10.016,21.117,15.086,36.164,15.227c6.195,0,11.367-0.477,15.5-1.398
					c2.125-0.406,3.977-0.836,5.508-1.281c1.5-0.539,2.641-1,3.391-1.398L2652.789,58.736"/>
				<path id="path88" inkscape:connector-curvature="0" fill="#2056AE" d="M2677.945,121.83h12.383V55.025h0.398
					c2.781,5.852,6.891,10.703,12.305,14.547c5.43,3.523,11.828,5.359,19.195,5.5c13.508-0.141,22.719-4.25,27.625-12.328
					c4.781-8.203,7.109-18.922,6.969-32.141v-62.578h-12.391v62.453c0,4.609-0.258,8.984-0.789,13.133
					c-0.578,3.93-1.711,7.414-3.391,10.414c-3.164,6.563-9.813,9.898-19.898,10.023c-10.883-0.266-18.648-4.563-23.313-12.93
					c-4.602-8.344-6.828-17.375-6.711-27.063v-56.031h-12.383V121.83"/>
				<path id="path90" inkscape:connector-curvature="0" fill="#2056AE" d="M2848.961,20.697h-3.594
					c-5.43,0-10.875-0.133-16.313-0.406c-5.688-0.523-10.883-1.703-15.539-3.516c-4.664-1.609-8.383-4.102-11.164-7.523
					c-3.055-3.484-4.563-8.094-4.563-13.859c0-6.68,2.117-11.477,6.398-14.352c3.945-3.016,8.844-4.516,14.672-4.516
					c7.313,0,13.078,1.5,17.281,4.516c4.148,2.875,7.164,6.289,9.039,10.25c1.938,4.281,3.039,8.461,3.313,12.547
					c0.305,4.281,0.469,7.797,0.469,10.531V20.697z M2850.117-15.241h-0.383c-2.906-6.109-7.367-10.805-13.375-14.055
					c-5.953-3.336-12.227-5.055-18.813-5.188c-7.055,0.133-12.75,1.297-17.07,3.492c-4.523,2.063-7.984,4.664-10.375,7.797
					c-4.227,6.797-6.188,12.859-5.93,18.203c0,8.734,2.047,15.617,6.125,20.688c4.008,5.055,9.109,8.688,15.328,10.898
					c6.195,2.273,12.945,3.773,20.25,4.492c7.188,0.406,14.07,0.602,20.664,0.602h2.422v5.352
					c0.406,18.008-7.297,27.008-23.109,27.008c-10.477,0.141-20.422-2.742-29.813-8.664v12.531
					c9.383,4.492,19.297,6.883,29.766,7.156c23.969,0.25,35.828-12.719,35.547-38.953v-46.164
					c-0.195-7.953,0.148-15.258,1.063-21.93h-12.297V-15.241"/>
				<path id="path92" inkscape:connector-curvature="0" fill="#2056AE" d="M2903.039,61.548h-20.438v11.008h20.438v7.617
					c0,5.594,0.258,11.078,0.781,16.406c0.258,5.227,1.266,9.852,3,13.93c1.68,4.273,4.391,7.641,8.141,10.117
					c3.523,2.398,8.477,3.602,14.805,3.602c2.133,0,4.305-0.063,6.578-0.203c2.266-0.398,3.953-1,5.125-1.789l-0.758-11.313
					c-2.813,1.523-6.102,2.305-9.922,2.305c-4.148,0-7.273-0.984-9.422-2.906c-2.273-2.219-3.781-4.883-4.563-8.016
					c-0.773-3.133-1.172-6.484-1.172-10.023c-0.125-3.68-0.188-7.211-0.188-10.609v-9.117h22.828V61.548h-22.828v-93.523h-12.406
					V61.548"/>
				<path id="path94" inkscape:connector-curvature="0" fill="#2056AE" d="M3006.375,61.548h-23.047V-6.225
					c0-4.828,1.063-8.859,3.203-12.133c1.938-3.414,5.375-5.117,10.305-5.117c4.523,0,8.391,0.836,11.555,2.508l0.781-10.641
					c-1.492-0.523-3.547-1.117-6.195-1.781c-2.773-0.742-5.813-1.094-9.094-1.094c-5.43,0-9.711,0.969-12.883,2.906
					c-3.039,1.93-5.336,4.469-6.867,7.609c-1.367,3.273-2.234,6.938-2.617,11.008c-0.398,4.148-0.594,8.617-0.594,13.422v61.086
					h-19.852v11.008h19.852v25.234l12.414,4.508V72.556h23.039V61.548"/>
			</g>
		</g>
	</g>
</g>
</svg>
