<svg version="1.1" baseProfile="full" width="960" height="660" xmlns="http://www.w3.org/2000/svg" xmlns:xlink="http://www.w3.org/1999/xlink">
<style type="text/css">

  svg a > * {
    opacity: 0;
  }

  svg a > *:hover {
    opacity: 1;
  }

</style>
<g id="Genese">
	<g>
		<text transform="matrix(1 0 0 1 226.3062 19.4717)" style="fill:#666666; font-size:0.75em;">1775</text>
		<text transform="matrix(1 0 0 1 283.8062 19.4717)" style="fill:#CCCCCB; font-size:0.75em;">1780</text>
		<text transform="matrix(1 0 0 1 341.3062 19.4717)" style="fill:#CCCCCB; font-size:0.75em;">1785</text>
		<text transform="matrix(1 0 0 1 628.8066 19.4717)" style="fill:#CCCCCB; font-size:0.75em;">1810</text>
		<text transform="matrix(1 0 0 1 685.9609 19.4717)" style="fill:#CCCCCB; font-size:0.75em;">1815</text>
		<text transform="matrix(1 0 0 1 915.9609 19.4717)" style="fill:#CCCCCB; font-size:0.75em;">1835</text>
		<text transform="matrix(1 0 0 1 743.4609 19.4717)" style="fill:#CCCCCB; font-size:0.75em;">1820</text>
		<text transform="matrix(1 0 0 1 171.7837 19.4717)" style="fill:#CCCCCB; font-size:0.75em;">1770</text>
		<text transform="matrix(1 0 0 1 397.248 19.4717)" style="fill:#666666; font-size:0.75em;">1790</text>
		<text transform="matrix(1 0 0 1 477.7627 19.4717)" style="fill:#666666; font-size:0.75em;">1797</text>
		<text transform="matrix(1 0 0 1 525.3057 19.4717)" style="fill:#666666; font-size:0.75em;">1801</text>
		<text transform="matrix(1 0 0 1 582.8066 19.4717)" style="fill:#666666; font-size:0.75em;">1806</text>
		<text transform="matrix(1 0 0 1 812.8076 19.4717)" style="fill:#666666; font-size:0.75em;">1826</text>
		<text transform="matrix(1 0 0 1 850.2852 19.4717)" style="fill:#666666; font-size:0.75em;">...</text>
		<text transform="matrix(1 0 0 1 870.3076 19.4717)" style="fill:#666666; font-size:0.75em;">1831</text>
		<line style="fill:none;stroke:#CCCCCB;stroke-width:1.15;" x1="9.277" y1="30.97" x2="929.281" y2="30.97"/>
		<line style="fill:none;stroke:#CCCCCB;stroke-width:1.15;" x1="78.277" y1="65.47" x2="929.281" y2="65.47"/>
		<line style="fill:none;stroke:#CCCCCB;stroke-width:1.15;" x1="78.277" y1="99.97" x2="929.281" y2="99.97"/>
		<line style="fill:none;stroke:#CCCCCB;stroke-width:1.15;" x1="78.277" y1="134.47" x2="929.281" y2="134.47"/>
		<line style="fill:none;stroke:#CCCCCB;stroke-width:1.15;" x1="9.277" y1="168.97" x2="929.281" y2="168.97"/>
		<line style="fill:none;stroke:#CCCCCB;stroke-width:1.15;" x1="78.277" y1="203.47" x2="929.281" y2="203.47"/>
		<line style="fill:none;stroke:#CCCCCB;stroke-width:1.15;" x1="78.277" y1="237.97" x2="929.281" y2="237.97"/>
		<line style="fill:none;stroke:#CCCCCB;stroke-width:1.15;" x1="78.277" y1="272.47" x2="929.281" y2="272.47"/>
		<line style="fill:none;stroke:#CCCCCB;stroke-width:1.15;" x1="78.277" y1="306.97" x2="929.281" y2="306.97"/>
		<line style="fill:none;stroke:#CCCCCB;stroke-width:1.15;" x1="9.277" y1="341.47" x2="929.281" y2="341.47"/>
		<line style="fill:none;stroke:#CCCCCB;stroke-width:1.15;" x1="181.777" y1="30.97" x2="181.777" y2="341.47"/>
		<line style="fill:none;stroke:#CCCCCB;stroke-width:1.15;" x1="296.777" y1="30.97" x2="296.777" y2="341.47"/>
		<line style="fill:none;stroke:#CCCCCB;stroke-width:1.15;" x1="354.277" y1="30.97" x2="354.277" y2="341.47"/>
		<line style="fill:none;stroke:#CCCCCB;stroke-width:1.15;" x1="469.277" y1="30.97" x2="469.277" y2="341.47"/>
		<line style="fill:none;stroke:#CCCCCB;stroke-width:1.15;" x1="526.781" y1="30.97" x2="526.781" y2="341.47"/>
		<line style="fill:none;stroke:#CCCCCB;stroke-width:1.15;" x1="584.281" y1="30.97" x2="584.281" y2="341.47"/>
		<line style="fill:none;stroke:#CCCCCB;stroke-width:1.15;" x1="641.781" y1="30.97" x2="641.781" y2="341.47"/>
		<line style="fill:none;stroke:#CCCCCB;stroke-width:1.15;" x1="699.281" y1="30.97" x2="699.281" y2="341.47"/>
		<line style="fill:none;stroke:#CCCCCB;stroke-width:1.15;" x1="756.781" y1="30.97" x2="756.781" y2="341.47"/>
		<line style="fill:none;stroke:#CCCCCB;stroke-width:1.15;" x1="814.281" y1="30.97" x2="814.281" y2="341.47"/>
		<line style="fill:none;stroke:#CCCCCB;stroke-width:1.15;" x1="929.281" y1="30.97" x2="929.281" y2="341.47"/>
		<line style="fill:none;stroke:#666666;stroke-width:1.15;" x1="239.277" y1="30.97" x2="239.277" y2="341.47"/>
		<line style="fill:none;stroke:#666666;stroke-width:1.15;" x1="411.777" y1="30.97" x2="411.777" y2="341.47"/>
		<line style="fill:none;stroke:#666666;stroke-width:1.15;" x1="492.281" y1="30.97" x2="492.281" y2="341.47"/>
		<line style="fill:none;stroke:#666666;stroke-width:1.15;" x1="538.281" y1="30.97" x2="538.281" y2="341.47"/>
		<line style="fill:none;stroke:#666666;stroke-width:1.15;" x1="871.781" y1="30.97" x2="871.781" y2="341.47"/>
		<line style="fill:none;stroke:#666666;stroke-width:1.15;" x1="595.781" y1="30.97" x2="595.781" y2="341.47"/>
		<line style="fill:none;stroke:#666666;stroke-width:1.15;" x1="825.781" y1="30.97" x2="825.781" y2="341.47"/>
		<line style="fill:none;stroke:#666666;stroke-width:1.15;" x1="837.281" y1="30.97" x2="837.281" y2="341.47"/>
		<line style="fill:none;stroke:#666666;stroke-width:1.15;" x1="848.781" y1="30.97" x2="848.781" y2="341.47"/>
		<line style="fill:none;stroke:#666666;stroke-width:1.15;" x1="860.281" y1="30.97" x2="860.281" y2="341.47"/>
		<line style="fill:none;stroke:#666666;stroke-width:1.15;" x1="883.281" y1="30.97" x2="883.281" y2="341.47"/>
		<text transform="matrix(1 0 0 1 92.0278 53.9722)" style="fill:#333333; font-size:0.85em;">Zueignung</text>
		<text transform="matrix(1 0 0 1 107.001 88.4712)" style="fill:#333333; font-size:0.85em;">Vorspiel</text>
		<text transform="matrix(1 0 0 1 117.0337 122.9707)" style="fill:#333333; font-size:0.85em;">Prolog</text>
		<text transform="matrix(1 0 0 1 117.6406 157.4712)" style="fill:#333333; font-size:0.85em;">Faust I</text>
		<text transform="matrix(1 0 0 1 126.5835 191.9712)" style="fill:#333333; font-size:0.85em;">I. Akt</text>
		<text transform="matrix(1 0 0 1 122.8711 226.4712)" style="fill:#333333; font-size:0.85em;">II. Akt</text>
		<text transform="matrix(1 0 0 1 119.1592 260.9712)" style="fill:#333333; font-size:0.85em;">III. Akt</text>
		<text transform="matrix(1 0 0 1 117.5303 295.4707)" style="fill:#333333; font-size:0.85em;">IV. Akt</text>
		<text transform="matrix(1 0 0 1 121.2427 329.9712)" style="fill:#333333; font-size:0.85em;">V. Akt</text>
		<text transform="matrix(1 0 0 1 20.7773 260.9712)" style="fill:#333333; font-size:0.85em;">Faust II</text>
		<text transform="matrix(1 0 0 1 20.7773 104.3789)" style="fill:#333333; font-size:0.85em;">Faust I</text>
	</g>
	<g id="Grobgliederung">
		<polygon style="fill:#333333;" points="928.706,46.495 503.316,46.495 503.316,31.545 492.856,31.545 492.856,46.495 
			492.856,49.945 492.856,64.895 503.316,64.895 503.316,49.945 928.706,49.945"/>
		<polygon style="fill:#333333;" points="928.706,80.995 503.206,80.995 503.206,66.045 492.856,66.045 492.856,80.995 
			492.856,84.445 492.856,99.395 503.206,99.395 503.206,84.445 928.706,84.445"/>
		<polygon style="fill:#333333;" points="928.706,115.495 514.706,115.495 514.706,100.545 492.856,100.545 492.856,115.495 
			492.856,118.945 492.856,133.895 514.706,133.895 514.706,118.945 928.706,118.945"/>
		<polygon style="fill:#333333;" points="928.706,149.995 583.706,149.995 583.706,135.045 492.856,135.045 492.856,149.995 
			411.059,149.995 411.059,135.045 388.777,135.045 388.777,149.995 239.277,149.995 239.277,135.045 216.277,135.045 
			216.277,168.395 239.277,168.395 239.277,153.445 388.777,153.445 388.777,168.395 411.059,168.395 411.059,153.445 
			492.856,153.445 492.856,168.395 583.706,168.395 583.706,153.445 928.706,153.445"/>
		<polygon style="fill:#333333;" points="928.706,184.495 848.273,184.495 848.273,169.545 826.424,169.545 826.424,202.895 
			848.273,202.895 848.273,187.945 928.706,187.945"/>
		<polygon style="fill:#333333;" points="928.706,218.995 848.273,218.995 848.273,204.045 837.924,204.045 837.924,237.395 
			848.273,237.395 848.273,222.445 928.706,222.445"/>
		<polygon style="fill:#333333;" points="928.706,252.92 836.773,252.92 836.773,238.545 803.424,238.545 803.424,252.92 
			537.706,252.92 537.706,238.545 527.356,238.545 527.356,271.895 537.706,271.895 537.706,256.37 803.424,256.37 803.424,271.895 
			836.773,271.895 836.773,256.37 928.706,256.37"/>
		<rect x="917.206" y="273.045" style="fill:#333333;" width="11.5" height="33.35"/>
		<polygon style="fill:#333333;" points="917.206,307.545 917.206,322.495 825.503,322.495 825.503,307.545 804.376,307.545 
			804.376,340.895 825.503,340.895 825.503,325.945 917.206,325.945 917.206,340.895 928.706,340.895 928.706,307.545"/>
	</g>
	<a xlink:href="genesis_faust_i" >
		<rect x="9.277" y="30.436" width="920.004" height="138" style="fill:#ADD8E6; fill-opacity:0.25" class="highlight show-tooltip" title="Faust I" />
	</a>
	<a xlink:href="genesis_faust_ii" >
		<rect x="9.277" y="168.436" width="920.004" height="172.5" style="fill:#ADD8E6; fill-opacity:0.25" class="highlight show-tooltip" title="Faust II" />
	</a>
	<a xlink:href="archive_testimonies" >
		<rect x="9.277" y="536.5" width="920.004" height="115" style="fill:#ADD8E6; fill-opacity:0.25" class="highlight show-tooltip" title="Entstehungszeugnisse" />
	</a>
</g>
	<g id="Zeugen" transform="translate(0 537) scale(1 -113)">
		<rect id="wit_1770" x="177.0" y="0" style="fill:#DCDCDC;" width="9" height="0" />
		<rect id="wit_1771" x="188.5" y="0" style="fill:#DCDCDC;" width="9" height="0" />
		<rect id="wit_1772" x="200.0" y="0" style="fill:#DCDCDC;" width="9" height="0" />
		<rect id="wit_1773" x="211.5" y="0" style="fill:#DCDCDC;" width="9" height="0" />
		<rect id="wit_1774" x="223.0" y="0" style="fill:#DCDCDC;" width="9" height="0" />
		<rect id="wit_1775" x="234.5" y="0" style="fill:#DCDCDC;" width="9" height="0" />
		<rect id="wit_1776" x="246.0" y="0" style="fill:#DCDCDC;" width="9" height="0" />
		<rect id="wit_1777" x="257.5" y="0" style="fill:#DCDCDC;" width="9" height="0" />
		<rect id="wit_1778" x="269.0" y="0" style="fill:#DCDCDC;" width="9" height="0" />
		<rect id="wit_1779" x="280.5" y="0" style="fill:#DCDCDC;" width="9" height="0" />
		<rect id="wit_1780" x="292.0" y="0" style="fill:#DCDCDC;" width="9" height="0" />
		<rect id="wit_1781" x="303.5" y="0" style="fill:#DCDCDC;" width="9" height="0" />
		<rect id="wit_1782" x="315.0" y="0" style="fill:#DCDCDC;" width="9" height="0" />
		<rect id="wit_1783" x="326.5" y="0" style="fill:#DCDCDC;" width="9" height="0" />
		<rect id="wit_1784" x="338.0" y="0" style="fill:#DCDCDC;" width="9" height="0" />
		<rect id="wit_1785" x="349.5" y="0" style="fill:#DCDCDC;" width="9" height="0" />
		<rect id="wit_1786" x="361.0" y="0" style="fill:#DCDCDC;" width="9" height="0" />
		<rect id="wit_1787" x="372.5" y="0" style="fill:#DCDCDC;" width="9" height="0" />
		<rect id="wit_1788" x="384.0" y="0" style="fill:#DCDCDC;" width="9" height="0" />
		<rect id="wit_1789" x="395.5" y="0" style="fill:#DCDCDC;" width="9" height="0" />
		<rect id="wit_1790" x="407.0" y="0" style="fill:#DCDCDC;" width="9" height="0" />
		<rect id="wit_1791" x="418.5" y="0" style="fill:#DCDCDC;" width="9" height="0" />
		<rect id="wit_1792" x="430.0" y="0" style="fill:#DCDCDC;" width="9" height="0" />
		<rect id="wit_1793" x="441.5" y="0" style="fill:#DCDCDC;" width="9" height="0" />
		<rect id="wit_1794" x="453.0" y="0" style="fill:#DCDCDC;" width="9" height="0" />
		<rect id="wit_1795" x="464.5" y="0" style="fill:#DCDCDC;" width="9" height="0" />
		<rect id="wit_1796" x="476.0" y="0" style="fill:#DCDCDC;" width="9" height="0" />
		<rect id="wit_1797" x="487.5" y="0" style="fill:#DCDCDC;" width="9" height="0" />
		<rect id="wit_1798" x="499.0" y="0" style="fill:#DCDCDC;" width="9" height="0" />
		<rect id="wit_1799" x="510.5" y="0" style="fill:#DCDCDC;" width="9" height="0" />
		<rect id="wit_1800" x="522.0" y="0" style="fill:#DCDCDC;" width="9" height="0" />
		<rect id="wit_1801" x="533.5" y="0" style="fill:#DCDCDC;" width="9" height="0" />
		<rect id="wit_1802" x="545.0" y="0" style="fill:#DCDCDC;" width="9" height="0" />
		<rect id="wit_1803" x="556.5" y="0" style="fill:#DCDCDC;" width="9" height="0" />
		<rect id="wit_1804" x="568.0" y="0" style="fill:#DCDCDC;" width="9" height="0" />
		<rect id="wit_1805" x="579.5" y="0" style="fill:#DCDCDC;" width="9" height="0" />
		<rect id="wit_1806" x="591.0" y="0" style="fill:#DCDCDC;" width="9" height="0" />
		<rect id="wit_1807" x="602.5" y="0" style="fill:#DCDCDC;" width="9" height="0" />
		<rect id="wit_1808" x="614.0" y="0" style="fill:#DCDCDC;" width="9" height="0" />
		<rect id="wit_1809" x="625.5" y="0" style="fill:#DCDCDC;" width="9" height="0" />
		<rect id="wit_1810" x="637.0" y="0" style="fill:#DCDCDC;" width="9" height="0" />
		<rect id="wit_1811" x="648.5" y="0" style="fill:#DCDCDC;" width="9" height="0" />
		<rect id="wit_1812" x="660.0" y="0" style="fill:#DCDCDC;" width="9" height="0" />
		<rect id="wit_1813" x="671.5" y="0" style="fill:#DCDCDC;" width="9" height="0" />
		<rect id="wit_1814" x="683.0" y="0" style="fill:#DCDCDC;" width="9" height="0" />
		<rect id="wit_1815" x="694.5" y="0" style="fill:#DCDCDC;" width="9" height="0" />
		<rect id="wit_1816" x="706.0" y="0" style="fill:#DCDCDC;" width="9" height="0" />
		<rect id="wit_1817" x="717.5" y="0" style="fill:#DCDCDC;" width="9" height="0" />
		<rect id="wit_1818" x="729.0" y="0" style="fill:#DCDCDC;" width="9" height="0" />
		<rect id="wit_1819" x="740.5" y="0" style="fill:#DCDCDC;" width="9" height="0" />
		<rect id="wit_1820" x="752.0" y="0" style="fill:#DCDCDC;" width="9" height="0" />
		<rect id="wit_1821" x="763.5" y="0" style="fill:#DCDCDC;" width="9" height="0" />
		<rect id="wit_1822" x="775.0" y="0" style="fill:#DCDCDC;" width="9" height="0" />
		<rect id="wit_1823" x="786.5" y="0" style="fill:#DCDCDC;" width="9" height="0" />
		<rect id="wit_1824" x="798.0" y="0" style="fill:#DCDCDC;" width="9" height="0" />
		<rect id="wit_1825" x="809.5" y="0" style="fill:#DCDCDC;" width="9" height="0" />
		<rect id="wit_1826" x="821.0" y="0" style="fill:#DCDCDC;" width="9" height="0" />
		<rect id="wit_1827" x="832.5" y="0" style="fill:#DCDCDC;" width="9" height="0" />
		<rect id="wit_1828" x="844.0" y="0" style="fill:#DCDCDC;" width="9" height="0" />
		<rect id="wit_1829" x="855.5" y="0" style="fill:#DCDCDC;" width="9" height="0" />
		<rect id="wit_1830" x="867.0" y="0" style="fill:#DCDCDC;" width="9" height="0" />
		<rect id="wit_1831" x="878.5" y="0" style="fill:#DCDCDC;" width="9" height="0" />
		<rect id="wit_1832" x="890.0" y="0" style="fill:#DCDCDC;" width="9" height="0" />
		<rect id="wit_1833" x="901.5" y="0" style="fill:#DCDCDC;" width="9" height="0" />

		<rect id="wit_1834" x="913.0" y="0" style="fill:#DCDCDC;" width="9" height="0" />
		<rect id="wit_1835" x="924.5" y="0" style="fill:#DCDCDC;" width="9" height="0" />
	</g>
<g id="Zeugnisse">
	<g>
		<text transform="matrix(1 0 0 1 226.3062 411.0742)" style="fill:#666666; font-size:0.75em;">1775</text>
		<text transform="matrix(1 0 0 1 283.8062 411.0742)" style="fill:#CCCCCB; font-size:0.75em;">1780</text>
		<text transform="matrix(1 0 0 1 341.3062 411.0742)" style="fill:#CCCCCB; font-size:0.75em;">1785</text>
		<text transform="matrix(1 0 0 1 628.8066 411.0742)" style="fill:#CCCCCB; font-size:0.75em;">1810</text>
		<text transform="matrix(1 0 0 1 685.9609 411.0742)" style="fill:#CCCCCB; font-size:0.75em;">1815</text>
		<text transform="matrix(1 0 0 1 915.9609 411.0742)" style="fill:#CCCCCB; font-size:0.75em;">1835</text>
		<text transform="matrix(1 0 0 1 743.4609 411.0742)" style="fill:#CCCCCB; font-size:0.75em;">1820</text>
		<text transform="matrix(1 0 0 1 171.7837 411.0742)" style="fill:#CCCCCB; font-size:0.75em;">1770</text>
		<text transform="matrix(1 0 0 1 397.248 411.0742)" style="fill:#666666; font-size:0.75em;">1790</text>
		<text transform="matrix(1 0 0 1 477.7627 411.0742)" style="fill:#666666; font-size:0.75em;">1797</text>
		<text transform="matrix(1 0 0 1 525.3057 411.0742)" style="fill:#666666; font-size:0.75em;">1801</text>
		<text transform="matrix(1 0 0 1 582.8066 411.0742)" style="fill:#666666; font-size:0.75em;">1806</text>
		<text transform="matrix(1 0 0 1 812.8076 411.0742)" style="fill:#666666; font-size:0.75em;">1826</text>
		<text transform="matrix(1 0 0 1 850.2852 411.0742)" style="fill:#666666; font-size:0.75em;">...</text>
		<text transform="matrix(1 0 0 1 870.3076 411.0742)" style="fill:#666666; font-size:0.75em;">1831</text>
		<line style="fill:none;stroke:#CCCCCB;stroke-width:1.15;" x1="9.277" y1="421.997" x2="929.281" y2="421.997"/>
		<line style="fill:none;stroke:#CCCCCB;stroke-width:1.15;" x1="9.277" y1="536.997" x2="929.281" y2="536.997"/>
		<line style="fill:none;stroke:#CCCCCB;stroke-width:1.15;" x1="9.277" y1="651.997" x2="929.281" y2="651.997"/>
		<line style="fill:none;stroke:#CCCCCB;stroke-width:1.15;" x1="181.777" y1="421.997" x2="181.777" y2="651.997"/>
		<line style="fill:none;stroke:#CCCCCB;stroke-width:1.15;" x1="296.777" y1="421.997" x2="296.777" y2="651.997"/>
		<line style="fill:none;stroke:#CCCCCB;stroke-width:1.15;" x1="354.277" y1="421.997" x2="354.277" y2="651.997"/>
		<line style="fill:none;stroke:#CCCCCB;stroke-width:1.15;" x1="469.277" y1="421.997" x2="469.277" y2="651.997"/>
		<line style="fill:none;stroke:#CCCCCB;stroke-width:1.15;" x1="526.781" y1="421.997" x2="526.781" y2="651.997"/>
		<line style="fill:none;stroke:#CCCCCB;stroke-width:1.15;" x1="584.281" y1="421.997" x2="584.281" y2="651.997"/>
		<line style="fill:none;stroke:#CCCCCB;stroke-width:1.15;" x1="641.781" y1="421.997" x2="641.781" y2="651.997"/>
		<line style="fill:none;stroke:#CCCCCB;stroke-width:1.15;" x1="699.281" y1="421.997" x2="699.281" y2="651.997"/>
		<line style="fill:none;stroke:#CCCCCB;stroke-width:1.15;" x1="756.781" y1="421.997" x2="756.781" y2="651.997"/>
		<line style="fill:none;stroke:#CACAC9;stroke-width:1.15;" x1="814.281" y1="421.997" x2="814.281" y2="651.997"/>
		<line style="fill:none;stroke:#CCCCCB;stroke-width:1.15;" x1="929.281" y1="421.997" x2="929.281" y2="651.997"/>
		<line style="fill:none;stroke:#666666;stroke-width:1.15;" x1="239.277" y1="421.997" x2="239.277" y2="651.997"/>
		<line style="fill:none;stroke:#666666;stroke-width:1.15;" x1="411.777" y1="421.997" x2="411.777" y2="651.997"/>
		<line style="fill:none;stroke:#666666;stroke-width:1.15;" x1="492.281" y1="421.997" x2="492.281" y2="651.997"/>
		<line style="fill:none;stroke:#666666;stroke-width:1.15;" x1="538.281" y1="421.997" x2="538.281" y2="651.997"/>
		<line style="fill:none;stroke:#666666;stroke-width:1.15;" x1="871.781" y1="421.997" x2="871.781" y2="651.997"/>
		<line style="fill:none;stroke:#666666;stroke-width:1.15;" x1="595.781" y1="421.997" x2="595.781" y2="651.997"/>
		<line style="fill:none;stroke:#666666;stroke-width:1.15;" x1="825.781" y1="421.997" x2="825.781" y2="651.997"/>
		<line style="fill:none;stroke:#666666;stroke-width:1.15;" x1="837.281" y1="421.997" x2="837.281" y2="651.997"/>
		<line style="fill:none;stroke:#666666;stroke-width:1.15;" x1="848.781" y1="421.997" x2="848.781" y2="651.997"/>
		<line style="fill:none;stroke:#666666;stroke-width:1.15;" x1="860.281" y1="421.997" x2="860.281" y2="651.997"/>
		<line style="fill:none;stroke:#666666;stroke-width:1.15;" x1="883.281" y1="421.997" x2="883.281" y2="651.997"/>
		<text transform="matrix(1 0 0 1 20.7773 485.249)" style="fill:#333333; font-size:0.85em;">Zeugen</text>
		<text transform="matrix(1 0 0 1 20.7773 599.0986)" style="fill:#333333; font-size:0.85em;">Entstehungszeugnisse</text>
	</g>
	<g id="Zeugen">
		<path style="fill:#F9BD02;" d="M235.722,452.76c0,1.896-1.553,3.449-3.45,3.449h-43.019c-1.897,0-3.449-1.554-3.449-3.449v-15.525
			c0-1.896,1.552-3.45,3.449-3.45h43.019c1.897,0,3.45,1.554,3.45,3.45V452.76z"/>
		<path style="fill:#333333;" d="M321.054,452.76c0,1.896-1.553,3.449-3.45,3.449h-43.018c-1.898,0-3.45-1.554-3.45-3.449v-15.525
			c0-1.896,1.552-3.45,3.45-3.45h43.018c1.897,0,3.45,1.554,3.45,3.45V452.76z"/>
		<path style="fill:#333333;" d="M436.622,452.76c0,1.896-1.553,3.449-3.45,3.449h-43.019c-1.897,0-3.45-1.554-3.45-3.449v-15.525
			c0-1.896,1.553-3.45,3.45-3.45h43.019c1.897,0,3.45,1.554,3.45,3.45V452.76z"/>
		<path style="fill:#333333;" d="M655.693,452.76c0,1.896-1.552,3.449-3.45,3.449h-43.016c-1.898,0-3.45-1.554-3.45-3.449v-15.525
			c0-1.896,1.552-3.45,3.45-3.45h43.014c1.897,0,3.45,1.554,3.45,3.45L655.693,452.76L655.693,452.76z"/>
		<path style="fill:#BC9E31;" d="M563.118,452.76c0,1.896-1.552,3.449-3.45,3.449h-43.016c-1.898,0-3.45-1.554-3.45-3.449v-15.525
			c0-1.896,1.552-3.45,3.45-3.45h43.016c1.898,0,3.45,1.554,3.45,3.45V452.76z"/>
		<path style="fill:#F9BD02;" d="M736.243,452.76c0,1.896-1.555,3.449-3.45,3.449h-43.017c-1.896,0-3.449-1.554-3.449-3.449v-15.525
			c0-1.896,1.554-3.45,3.449-3.45h43.017c1.896,0,3.45,1.554,3.45,3.45V452.76z"/>
		<path style="fill:#F9BD02;" d="M839.759,452.76c0,1.896-1.558,3.449-3.45,3.449h-43.02c-1.896,0-3.45-1.554-3.45-3.449v-15.525
			c0-1.896,1.555-3.45,3.45-3.45h43.02c1.893,0,3.45,1.554,3.45,3.45V452.76z"/>
		<path style="fill:#333333;" d="M862.916,487.555c0,1.896-1.553,3.45-3.45,3.45h-43.02c-1.895,0-3.45-1.555-3.45-3.45v-15.525
			c0-1.896,1.556-3.449,3.45-3.449h43.02c1.897,0,3.45,1.553,3.45,3.449V487.555z"/>
		<path style="fill:#333333;" d="M862.916,522.636c0,1.895-1.553,3.449-3.45,3.449h-43.02c-1.895,0-3.45-1.555-3.45-3.449V507.11
			c0-1.898,1.556-3.45,3.45-3.45h43.02c1.897,0,3.45,1.552,3.45,3.45V522.636z"/>
		<path style="fill:#F9BD02;" d="M907.536,452.76c0,1.896-1.552,3.449-3.449,3.449h-43.018c-1.895,0-3.45-1.554-3.45-3.449v-15.525
			c0-1.896,1.556-3.45,3.45-3.45h43.018c1.897,0,3.449,1.554,3.449,3.45V452.76z"/>
		<path style="fill:#F9BD02;" d="M563.118,487.563c0,1.895-1.552,3.45-3.45,3.45h-43.016c-1.898,0-3.45-1.556-3.45-3.45v-15.524
			c0-1.898,1.552-3.45,3.45-3.45h43.016c1.898,0,3.45,1.552,3.45,3.45V487.563z"/>
		<text transform="matrix(1 0 0 1 196.7275 448.4492)" style="fill:#FFFFFF; font-size:0.75em;">1 H.5</text>
		<text transform="matrix(1 0 0 1 287.5771 448.4492)" style="fill:#FFFFFF; font-size:0.75em;">J.1</text>
		<text transform="matrix(1 0 0 1 407.9775 448.4492)" style="fill:#FFFFFF; font-size:0.75em;">S</text>
		<text transform="matrix(1 0 0 1 694.6787 448.4492)" style="fill:#FFFFFF; font-size:0.75em;">H P63</text>
		<text transform="matrix(1 0 0 1 795.8779 448.4492)" style="fill:#FFFFFF; font-size:0.75em;">2 V H.2</text>
		<text transform="matrix(1 0 0 1 875.2285 448.4492)" style="fill:#FFFFFF; font-size:0.75em;">2 H</text>
		<text transform="matrix(1 0 0 1 524.4766 448.4492)" style="fill:#FFFFFF; font-size:0.75em;">H P1</text>
		<text transform="matrix(1 0 0 1 518.7266 484.0986)" style="fill:#FFFFFF; font-size:0.75em;">2 III H.1</text>
		<text transform="matrix(1 0 0 1 824.6279 484.0986)" style="fill:#FFFFFF; font-size:0.75em;">C.1 4</text>
		<text transform="matrix(1 0 0 1 820.0283 518.5986)" style="fill:#FFFFFF; font-size:0.75em;">C.1 12</text>
		<text transform="matrix(1 0 0 1 627.0781 448.4492)" style="fill:#FFFFFF; font-size:0.75em;">A</text>
		<a xlink:href="document?sigil=1_H.5" >
			<rect x="185.802" y="433.739" style="fill-opacity:0;" width="50" height="23" class="invisible" />
		</a>
		<a xlink:href="document?sigil=J.1" >
			<rect x="270.327" y="433.739" style="fill-opacity:0;" width="50" height="23" class="invisible" />
		</a>
		<a xlink:href="document?sigil=S" >
			<rect x="386.478" y="433.739" style="fill-opacity:0;" width="50" height="23" class="invisible" />
		</a>
		<a xlink:href="document?sigil=H_P1" >
			<rect x="512.981" y="433.739" style="fill-opacity:0;" width="50" height="23" class="invisible" />
		</a>
		<a xlink:href="document?sigil=2_III_H.1" >
			<rect x="512.981" y="468.585" style="fill-opacity:0;" width="50" height="23" class="invisible" />
		</a>
		<a xlink:href="document?sigil=A" >
			<rect x="605.556" y="433.739" style="fill-opacity:0;" width="50" height="23" class="invisible" />
		</a>
		<a xlink:href="document?sigil=H_P63" >
			<rect x="686.056" y="433.739" style="fill-opacity:0;" width="50" height="23" class="invisible" />
		</a>
		<a xlink:href="document?sigil=2_V_H.2" >
			<rect x="789.556" y="433.739" style="fill-opacity:0;" width="50" height="23" class="invisible" />
		</a>
		<a xlink:href="document?sigil=2_H" >
			<rect x="857.406" y="433.739" style="fill-opacity:0;" width="50" height="23" class="invisible" />
		</a>
		<a xlink:href="document?sigil=C.1_4" >
			<rect x="812.556" y="468.585" style="fill-opacity:0;" width="50" height="23" class="invisible" />
		</a>
		<a xlink:href="document?sigil=C.1_12" >
			<rect x="812.556" y="503.66" style="fill-opacity:0;" width="50" height="23" class="invisible" />
		</a>
	</g>
	<g id="Entstehungszeugnisse" transform="translate(0 652) scale(1 -100)">
		<rect id="tes_1770" x="177.0" y="0" style="fill:#9B9D9E;" width="9" height="0" />
		<rect id="tes_1771" x="188.5" y="0" style="fill:#9B9D9E;" width="9" height="0" />
		<rect id="tes_1772" x="200.0" y="0" style="fill:#9B9D9E;" width="9" height="0" />
		<rect id="tes_1773" x="211.5" y="0" style="fill:#9B9D9E;" width="9" height="0" />
		<rect id="tes_1774" x="223.0" y="0" style="fill:#9B9D9E;" width="9" height="0" />
		<rect id="tes_1775" x="234.5" y="0" style="fill:#9B9D9E;" width="9" height="0" />
		<rect id="tes_1776" x="246.0" y="0" style="fill:#9B9D9E;" width="9" height="0" />
		<rect id="tes_1777" x="257.5" y="0" style="fill:#9B9D9E;" width="9" height="0" />
		<rect id="tes_1778" x="269.0" y="0" style="fill:#9B9D9E;" width="9" height="0" />
		<rect id="tes_1779" x="280.5" y="0" style="fill:#9B9D9E;" width="9" height="0" />
		<rect id="tes_1780" x="292.0" y="0" style="fill:#9B9D9E;" width="9" height="0" />
		<rect id="tes_1781" x="303.5" y="0" style="fill:#9B9D9E;" width="9" height="0" />
		<rect id="tes_1782" x="315.0" y="0" style="fill:#9B9D9E;" width="9" height="0" />
		<rect id="tes_1783" x="326.5" y="0" style="fill:#9B9D9E;" width="9" height="0" />
		<rect id="tes_1784" x="338.0" y="0" style="fill:#9B9D9E;" width="9" height="0" />
		<rect id="tes_1785" x="349.5" y="0" style="fill:#9B9D9E;" width="9" height="0" />
		<rect id="tes_1786" x="361.0" y="0" style="fill:#9B9D9E;" width="9" height="0" />
		<rect id="tes_1787" x="372.5" y="0" style="fill:#9B9D9E;" width="9" height="0" />
		<rect id="tes_1788" x="384.0" y="0" style="fill:#9B9D9E;" width="9" height="0" />
		<rect id="tes_1789" x="395.5" y="0" style="fill:#9B9D9E;" width="9" height="0" />
		<rect id="tes_1790" x="407.0" y="0" style="fill:#9B9D9E;" width="9" height="0" />
		<rect id="tes_1791" x="418.5" y="0" style="fill:#9B9D9E;" width="9" height="0" />
		<rect id="tes_1792" x="430.0" y="0" style="fill:#9B9D9E;" width="9" height="0" />
		<rect id="tes_1793" x="441.5" y="0" style="fill:#9B9D9E;" width="9" height="0" />
		<rect id="tes_1794" x="453.0" y="0" style="fill:#9B9D9E;" width="9" height="0" />
		<rect id="tes_1795" x="464.5" y="0" style="fill:#9B9D9E;" width="9" height="0" />
		<rect id="tes_1796" x="476.0" y="0" style="fill:#9B9D9E;" width="9" height="0" />
		<rect id="tes_1797" x="487.5" y="0" style="fill:#9B9D9E;" width="9" height="0" />
		<rect id="tes_1798" x="499.0" y="0" style="fill:#9B9D9E;" width="9" height="0" />
		<rect id="tes_1799" x="510.5" y="0" style="fill:#9B9D9E;" width="9" height="0" />
		<rect id="tes_1800" x="522.0" y="0" style="fill:#9B9D9E;" width="9" height="0" />
		<rect id="tes_1801" x="533.5" y="0" style="fill:#9B9D9E;" width="9" height="0" />
		<rect id="tes_1802" x="545.0" y="0" style="fill:#9B9D9E;" width="9" height="0" />
		<rect id="tes_1803" x="556.5" y="0" style="fill:#9B9D9E;" width="9" height="0" />
		<rect id="tes_1804" x="568.0" y="0" style="fill:#9B9D9E;" width="9" height="0" />
		<rect id="tes_1805" x="579.5" y="0" style="fill:#9B9D9E;" width="9" height="0" />
		<rect id="tes_1806" x="591.0" y="0" style="fill:#9B9D9E;" width="9" height="0" />
		<rect id="tes_1807" x="602.5" y="0" style="fill:#9B9D9E;" width="9" height="0" />
		<rect id="tes_1808" x="614.0" y="0" style="fill:#9B9D9E;" width="9" height="0" />
		<rect id="tes_1809" x="625.5" y="0" style="fill:#9B9D9E;" width="9" height="0" />
		<rect id="tes_1810" x="637.0" y="0" style="fill:#9B9D9E;" width="9" height="0" />
		<rect id="tes_1811" x="648.5" y="0" style="fill:#9B9D9E;" width="9" height="0" />
		<rect id="tes_1812" x="660.0" y="0" style="fill:#9B9D9E;" width="9" height="0" />
		<rect id="tes_1813" x="671.5" y="0" style="fill:#9B9D9E;" width="9" height="0" />
		<rect id="tes_1814" x="683.0" y="0" style="fill:#9B9D9E;" width="9" height="0" />
		<rect id="tes_1815" x="694.5" y="0" style="fill:#9B9D9E;" width="9" height="0" />
		<rect id="tes_1816" x="706.0" y="0" style="fill:#9B9D9E;" width="9" height="0" />
		<rect id="tes_1817" x="717.5" y="0" style="fill:#9B9D9E;" width="9" height="0" />
		<rect id="tes_1818" x="729.0" y="0" style="fill:#9B9D9E;" width="9" height="0" />
		<rect id="tes_1819" x="740.5" y="0" style="fill:#9B9D9E;" width="9" height="0" />
		<rect id="tes_1820" x="752.0" y="0" style="fill:#9B9D9E;" width="9" height="0" />
		<rect id="tes_1821" x="763.5" y="0" style="fill:#9B9D9E;" width="9" height="0" />
		<rect id="tes_1822" x="775.0" y="0" style="fill:#9B9D9E;" width="9" height="0" />
		<rect id="tes_1823" x="786.5" y="0" style="fill:#9B9D9E;" width="9" height="0" />
		<rect id="tes_1824" x="798.0" y="0" style="fill:#9B9D9E;" width="9" height="0" />
		<rect id="tes_1825" x="809.5" y="0" style="fill:#9B9D9E;" width="9" height="0" />
		<rect id="tes_1826" x="821.0" y="0" style="fill:#9B9D9E;" width="9" height="0" />
		<rect id="tes_1827" x="832.5" y="0" style="fill:#9B9D9E;" width="9" height="0" />
		<rect id="tes_1828" x="844.0" y="0" style="fill:#9B9D9E;" width="9" height="0" />
		<rect id="tes_1829" x="855.5" y="0" style="fill:#9B9D9E;" width="9" height="0" />
		<rect id="tes_1830" x="867.0" y="0" style="fill:#9B9D9E;" width="9" height="0" />
		<rect id="tes_1831" x="878.5" y="0" style="fill:#9B9D9E;" width="9" height="0" />
		<rect id="tes_1832" x="890.0" y="0" style="fill:#9B9D9E;" width="9" height="0" />
		<rect id="tes_1833" x="901.5" y="0" style="fill:#9B9D9E;" width="9" height="0" />
		<rect id="tes_1834" x="913.0" y="0" style="fill:#9B9D9E;" width="9" height="0" />
		<rect id="tes_1835" x="924.5" y="0" style="fill:#9B9D9E;" width="9" height="0" />
	</g>
</g>
</svg>
