<?xml version="1.0" encoding="UTF-8" standalone="no"?>
<!-- Created with Inkscape (http://www.inkscape.org/) -->

<svg
   xmlns:ns="http://ns.adobe.com/SaveForWeb/1.0/"
   xmlns:dc="http://purl.org/dc/elements/1.1/"
   xmlns:cc="http://creativecommons.org/ns#"
   xmlns:rdf="http://www.w3.org/1999/02/22-rdf-syntax-ns#"
   xmlns:svg="http://www.w3.org/2000/svg"
   xmlns="http://www.w3.org/2000/svg"
   xmlns:sodipodi="http://sodipodi.sourceforge.net/DTD/sodipodi-0.dtd"
   xmlns:inkscape="http://www.inkscape.org/namespaces/inkscape"
   version="1.1"
   width="80"
   height="70.32991"
   viewBox="0 0 80.000001 70.32991"
   id="svg2"
   xml:space="preserve"
   inkscape:version="0.91 r13725"
   sodipodi:docname="wip-bg.svg"><sodipodi:namedview
     pagecolor="#ffffff"
     bordercolor="#666666"
     borderopacity="1"
     objecttolerance="10"
     gridtolerance="10"
     guidetolerance="10"
     inkscape:pageopacity="0"
     inkscape:pageshadow="2"
     inkscape:window-width="2560"
     inkscape:window-height="1390"
     id="namedview9"
     showgrid="false"
     fit-margin-top="0"
     fit-margin-left="0"
     fit-margin-right="0"
     fit-margin-bottom="0"
     inkscape:zoom="15.697446"
     inkscape:cx="40"
     inkscape:cy="35.164955"
     inkscape:window-x="0"
     inkscape:window-y="50"
     inkscape:window-maximized="1"
     inkscape:current-layer="svg2"
     showguides="true"
     inkscape:guide-bbox="true" /><defs
     id="defs11" /><metadata
     id="metadata3"><ns:sfw><ns:slices /><ns:sliceSourceBounds
         bottomLeftOrigin="true"
         x="-75"
         y="93"
         width="745"
         height="655" /></ns:sfw><rdf:RDF><cc:Work
         rdf:about=""><dc:format>image/svg+xml</dc:format><dc:type
           rdf:resource="http://purl.org/dc/dcmitype/StillImage" /><dc:title></dc:title></cc:Work></rdf:RDF><ns:sfw><ns:slices /><ns:sliceSourceBounds
         bottomLeftOrigin="true"
         x="-75"
         y="93"
         width="745"
         height="655" /></ns:sfw></metadata><g
     id="g5000"
     transform="matrix(-0.10597363,0,0,0.10597363,80.21202,-0.21144006)"
     style="opacity:0.15"><g
       id="g1875"
       transform="matrix(1.118133,0,0,1.118133,-41.591102,-41.601731)"
       style=""><path
         id="path6"
         style="fill:#ffffff;fill-rule:evenodd;stroke:#000000;stroke-width:2"
         d="m 71.985614,631.52918 c -11.4325,0 -21.99656,-6.09918 -27.71282,-16 -5.71624,-9.90085 -5.71624,-22.09918 0,-32 L 348.84719,55.99085 c 5.71626,-9.90083 16.28032,-16.00001 27.71281,-16.00001 11.43251,0 21.99659,6.09918 27.71283,16.00001 l 304.5744,527.53833 c 5.71624,9.90082 5.71624,22.09915 0,32 -5.71626,9.90081 -16.28032,16 -27.71282,16 l -609.148796,0 z"
         inkscape:connector-curvature="0" /><path
         id="path8"
         style="fill:#c1121c;fill-opacity:1;fill-rule:evenodd;stroke:none"
         d="m 71.985614,619.52918 c -7.14532,0 -13.74786,-3.81198 -17.32052,-10 -3.57264,-6.18804 -3.57264,-13.81198 0,-20 L 359.23951,61.99086 c 3.57264,-6.18804 10.1752,-10.00002 17.32049,-10.00002 7.14533,0 13.74787,3.81198 17.32053,10.00002 l 304.5744,527.53832 c 3.57264,6.18802 3.57264,13.81196 0,20 -3.57266,6.18802 -10.1752,10 -17.32052,10 l -609.148796,0 z m 69.282086,-60 235.2923,-407.53833 235.29233,407.53833 -470.58463,0 z"
         inkscape:connector-curvature="0" /></g><g
       id="g4949"
       style=""><path
         style="fill:#000000;fill-rule:evenodd;stroke:none"
         d="m 360.32772,470.0846 c -0.037,-1.172 -0.394,-2.313 -1.03,-3.296 l -25.693,-39.712 -40.21,-21.285 -60.942,115.098 c -1.978,3.755 -3.021,7.93 -3.021,12.17 0,9.639 5.324,18.466 13.842,22.976 l 64.264,-121.387 27.011,41.759 2.022,54.599 c 0.517,13.973 11.995,25.029 25.978,25.029 0.446,0 0.526,0 0.968,-0.011 l -3.189,-85.94"
         id="path4887"
         inkscape:connector-curvature="0" /><path
         style="fill:#000000;fill-rule:evenodd;stroke:none"
         d="m 306.66072,373.7846 -5.134,9.691 -15.344,-12.685 -6.881,13.01 c -7.452,-3.951 -12.114,-11.682 -12.114,-20.114 0,-3.705 0.906,-7.361 2.645,-10.641 l 18.727,-35.348 c 2.809,-5.324 8.334,-8.653 14.354,-8.653 l 57.349,0 c 14.361,0 25.988,11.645 25.988,26.007 0,0.561 -0.005,1.1 -0.051,1.665 l -6.343,97.532 60.983,50.71 c -2.361,2.796 -5.355,4.972 -8.744,6.364 l -53.094,-43.854 -0.716,11.022 c -11.961,-0.77 -21.273,-10.705 -21.273,-22.7 0,-0.504 0.019,-0.957 0.042,-1.457 l 0.313,-4.742 -14.902,-12.31 5.131,-9.681 10.621,8.767 2.631,-40.745 -24.199,45.711 -40.213,-21.297 36.126,-68.236 -25.734,0 -15.523,29.305 15.355,12.679 z"
         id="path4885"
         inkscape:connector-curvature="0" /><path
         style="fill:#000000;fill-rule:evenodd;stroke:none"
         d="m 405.75172,271.6736 c -13.464,0 -24.374,10.91 -24.374,24.371 0,13.467 10.91,24.379 24.374,24.379 13.465,0 24.373,-10.912 24.373,-24.379 0,-13.461 -10.908,-24.371 -24.373,-24.371 z"
         id="path4883"
         inkscape:connector-curvature="0" /><g
         transform="matrix(1.1148577,0,0,1.1148577,436.92785,430.70611)"
         id="g4245"
         style=""><g
           id="g4247"
           style=""><g
             id="g4249"
             style=""><g
               id="g4251"
               style=""><g
                 id="g4253"
                 style=""><path
                   style="fill:#ffffff"
                   inkscape:connector-curvature="0"
                   d="M 109.98,98.53 C 109.7,92.28 107.59,88.22 103.77,84.7 94.23,75.89 82.73,67.48 72.14,59.95 67.23,56.46 61.77,51.85 56.08,49.72 48.06,46.71 39,47.78 30.41,49 26.66,49.53 22.89,50.13 19.19,51 14.91,52.02 9.83,53.23 6.2,55.8 2.94,58.11 3.34,61 4.94,63.68 c 0.24,1.23 0.01,2.4 0.02,3.65 0.02,2.36 -0.25,4.72 -0.82,7 -0.36,1.41 -0.85,2.77 -1.31,4.15 -1.83,5.34 3.22,9.82 6.96,12.91 2.1,1.73 4.34,3.29 6.45,5.01 8.2,6.67 16.6,12.7 24.99,19.05 9.83,7.45 13.58,10.04 25.85,5.85 3.31,-1.13 6.7,-2.03 10.09,-2.9 4.8,-1.23 11.18,-2.4 15.85,-4.04 4.73,-1.66 10.84,-3.86 14.31,-7.65 1.74,-1.89 2.48,-4.6 2.49,-7.12 0.12,-0.31 0.18,-0.65 0.16,-1.06 z"
                   id="path4255" /><path
                   style="fill:#bdcf46"
                   inkscape:connector-curvature="0"
                   d="m 13.37,58.22 c 4.72,-1.99 23.27,-4.87 27.36,-5.34 3.47,-0.4 7.84,-0.96 11.28,-0.45 1.39,0.23 5.85,2.56 10.48,5.71 9.47,6.44 34.45,25.17 36.03,26.62 0.42,0.39 3.85,3.66 2.12,3.64 -1.75,-0.02 -3.5,0.1 -5.23,0.3 -2.96,0.35 -20.23,4.46 -28.07,6.38 -1.55,0.38 -5.75,1.16 -6.91,1.39 -3.28,0.67 -5.97,-0.38 -8.65,-2.26 -5.59,-3.9 -40.37,-30.7 -41.28,-32.59 -0.66,-1.34 0.67,-2.47 2.87,-3.4 z"
                   id="path4257" /><path
                   style="fill:#2f2f2f"
                   inkscape:connector-curvature="0"
                   d="m 110.83,91.97 c -1.08,-2.84 -3.64,-5.09 -5.95,-7.23 C 94.31,74.98 83.2,67 71.56,58.6 68.57,56.44 65.64,54.36 62.53,52.37 60.99,51.39 59.08,50.56 57.44,49.74 52.02,47.03 46.38,47.23 40.52,47.9 29.85,49.12 19.54,49.48 9.3,52.98 6.45,53.96 3.66,55.32 3,58.75 c -0.26,1.39 0.51,3.74 1.01,5 0.39,0.96 -2.89,12.98 -3.38,14.42 -1.22,3.59 0.54,6.81 2.99,9.5 1.34,1.48 39.08,30.57 40.03,31.26 3.6,2.65 6.45,4.46 9.5,5.34 3.86,1.11 8.03,0.69 14.43,-1.49 2.57,-0.88 23.26,-6.01 34.77,-10.56 3.92,-1.55 6.17,-3.63 7.09,-4.64 1.12,-1.22 1.84,-2.77 2.23,-4.4 0.24,-0.99 0.36,-2.02 0.37,-3.02 0.1,-0.31 -0.43,-6.14 -1.21,-8.19 z M 13.37,58.22 c 4.72,-1.99 23.27,-4.87 27.36,-5.34 3.47,-0.4 7.84,-0.96 11.28,-0.45 1.39,0.23 5.85,2.56 10.48,5.71 9.47,6.44 34.45,25.17 36.03,26.62 0.42,0.39 3.85,3.66 2.12,3.64 -1.75,-0.02 -3.5,0.1 -5.23,0.3 -2.96,0.35 -20.23,4.46 -28.07,6.38 -1.55,0.38 -5.75,1.16 -6.91,1.39 -3.28,0.67 -5.97,-0.38 -8.65,-2.26 -5.59,-3.9 -40.37,-30.7 -41.28,-32.59 -0.66,-1.34 0.67,-2.47 2.87,-3.4 z M 9.39,85.99 C 8.42,85.01 4.61,82.49 5.65,79.31 6.77,75.87 7.84,70.3 8.08,66.63 c 4.29,3.45 44.33,34.01 46.82,34.72 1.55,4.82 1.57,10.23 -0.15,15 -0.24,0.66 -0.43,1.3 -0.71,1.94 -1.1,-0.41 -2.18,-0.99 -3.34,-1.7 C 48.84,115.43 12.63,89.26 9.39,85.99 Z m 93.34,20.05 c -3.6,2.57 -9.03,3.6 -12.59,4.65 -7.62,2.26 -15.31,4.32 -23.01,6.28 -2.29,0.58 -4.61,1.28 -6.95,1.67 0.43,-0.95 0.8,-1.93 1.06,-2.96 0.69,-2.72 0.82,-5.64 0.52,-8.43 -0.16,-1.43 -0.21,-4.04 -0.55,-5.42 0.4,-0.03 9.83,-2.26 17.28,-4.16 7.58,-1.93 16.37,-4.6 21.64,-4.71 2.09,-0.04 3.63,0.92 4.33,1.5 1.84,1.51 2.26,4.3 1.8,6.52 -0.43,2.18 -1.76,3.8 -3.53,5.06 z"
                   id="path4259" /></g></g></g><path
             inkscape:connector-curvature="0"
             d="m 23.86,79.56 c 5.72,4.39 20.66,15.8 27.52,21.04 2.18,1.66 4.63,3.38 9.6,2.48 4.97,-0.9 35.97,-8.94 35.97,-8.94 2.83,-0.74 5.96,-0.94 8.86,-0.55 1.05,0.14 2.08,0.47 3.02,0.97 0.33,0.18 0.68,0.36 0.98,0.6 0.16,0.13 0.27,0.3 0.44,0.42 2.29,1.55 0.89,-3.1 0.63,-3.73 -0.63,-1.53 -1.5,-2.96 -2.5,-4.28 -0.8,-1.04 -1.69,-2.01 -2.66,-2.91 C 95.16,74.91 83.48,66.47 71.84,58.07 68.85,55.91 65.9,53.67 62.79,51.68 61.25,50.7 59.69,49.73 58.06,48.91 52.63,46.2 46.56,46.47 40.7,47.14 30.03,48.36 19.36,48.96 9.12,52.47 c -2.86,0.98 -6.31,2.81 -6.95,6.26 -0.26,1.39 -0.26,3.81 2.19,5.98 1.78,1.58 11.96,9.06 19.5,14.85 z"
             id="path4261"
             style="fill:#000000" /></g><g
           id="g4263"
           style=""><g
             id="g4265"
             style=""><g
               id="g4267"
               style=""><g
                 id="g4269"
                 style=""><path
                   style="fill:#ffffff"
                   inkscape:connector-curvature="0"
                   d="M 125.71,71.96 C 125.43,65.71 123.32,61.65 119.5,58.13 109.96,49.32 98.46,40.91 87.86,33.38 82.95,29.89 77.49,25.28 71.8,23.15 63.78,20.14 54.72,21.21 46.12,22.43 c -3.75,0.53 -7.52,1.13 -11.21,2 -4.28,1.01 -9.37,2.23 -13,4.8 -3.26,2.31 -2.86,5.21 -1.26,7.88 0.24,1.23 0.01,2.4 0.02,3.65 0.02,2.36 -0.25,4.72 -0.82,7 -0.36,1.41 -0.85,2.77 -1.31,4.15 -1.82,5.34 3.23,9.81 6.98,12.91 2.1,1.73 4.34,3.29 6.45,5.01 8.19,6.67 16.6,12.7 24.98,19.05 9.83,7.45 13.58,10.04 25.85,5.85 3.31,-1.13 6.7,-2.03 10.09,-2.9 4.8,-1.23 11.17,-2.4 15.85,-4.04 4.73,-1.66 10.84,-3.86 14.31,-7.65 1.73,-1.9 2.48,-4.6 2.5,-7.12 0.12,-0.31 0.18,-0.66 0.16,-1.06 z"
                   id="path4271" /><path
                   style="fill:#bdcf46"
                   inkscape:connector-curvature="0"
                   d="m 29.1,31.65 c 4.72,-1.99 23.26,-4.87 27.36,-5.34 3.47,-0.4 7.83,-0.96 11.28,-0.45 1.39,0.23 5.85,2.56 10.48,5.71 9.47,6.44 34.45,25.17 36.02,26.62 0.42,0.39 3.86,3.66 2.13,3.64 -1.75,-0.02 -3.49,0.1 -5.23,0.3 -2.95,0.35 -20.23,4.46 -28.07,6.38 -1.55,0.38 -5.75,1.16 -6.91,1.39 -3.28,0.67 -5.97,-0.38 -8.66,-2.26 -5.59,-3.9 -40.37,-30.7 -41.28,-32.59 -0.65,-1.34 0.68,-2.47 2.88,-3.4 z"
                   id="path4273" /><path
                   style="fill:#2f2f2f"
                   inkscape:connector-curvature="0"
                   d="m 126.56,67.38 c -1.08,-2.85 -3.64,-5.1 -5.95,-7.23 C 110.05,50.4 98.94,42.41 87.29,34.02 c -3,-2.16 -5.92,-4.24 -9.03,-6.22 -1.55,-0.98 -3.45,-1.81 -5.09,-2.63 -5.44,-2.71 -11.06,-2.51 -16.93,-1.84 -10.66,1.22 -20.97,1.58 -31.21,5.08 -2.85,0.98 -5.65,2.33 -6.3,5.77 -0.26,1.39 0.5,3.74 1.01,5 0.39,0.96 -2.89,12.98 -3.38,14.41 -1.22,3.59 0.54,6.81 2.99,9.51 1.34,1.48 39.08,30.57 40.03,31.26 3.6,2.64 6.45,4.46 9.5,5.33 3.85,1.1 8.03,0.69 14.43,-1.49 2.57,-0.88 23.26,-6.01 34.77,-10.55 3.92,-1.55 6.17,-3.64 7.09,-4.64 1.12,-1.22 1.84,-2.77 2.24,-4.4 0.24,-0.99 0.36,-2.02 0.37,-3.02 0.09,-0.33 -0.44,-6.16 -1.22,-8.21 z M 29.1,33.63 c 4.72,-1.99 23.26,-4.86 27.36,-5.34 3.47,-0.41 7.83,-0.96 11.28,-0.45 1.39,0.23 5.85,2.56 10.48,5.71 9.47,6.44 34.45,25.17 36.02,26.62 0.42,0.39 3.86,3.66 2.13,3.64 -1.75,-0.02 -3.49,0.09 -5.23,0.3 -2.95,0.35 -20.23,4.47 -28.07,6.38 -1.55,0.38 -5.75,1.15 -6.91,1.39 C 72.88,72.55 70.19,71.5 67.5,69.63 61.91,65.73 27.13,38.93 26.22,37.04 25.57,35.69 26.9,34.56 29.1,33.63 Z M 25.12,61.4 c -0.97,-0.98 -4.78,-3.49 -3.74,-6.68 1.12,-3.44 2.19,-9 2.42,-12.68 4.3,3.44 44.34,34.01 46.82,34.72 1.55,4.82 1.57,10.23 -0.15,14.99 -0.24,0.66 -0.43,1.31 -0.71,1.94 -1.1,-0.41 -2.18,-0.99 -3.34,-1.7 C 64.57,90.84 28.36,64.67 25.12,61.4 Z m 93.34,20.05 c -3.6,2.56 -9.03,3.6 -12.58,4.66 -7.62,2.26 -15.31,4.31 -23.01,6.28 -2.3,0.59 -4.61,1.28 -6.95,1.67 0.43,-0.95 0.79,-1.93 1.06,-2.96 0.69,-2.73 0.82,-5.64 0.53,-8.43 -0.16,-1.43 -0.22,-4.03 -0.56,-5.42 0.4,-0.03 9.83,-2.26 17.28,-4.16 7.58,-1.93 16.36,-4.6 21.65,-4.71 2.09,-0.04 3.63,0.93 4.32,1.5 1.84,1.51 2.27,4.3 1.81,6.52 -0.45,2.17 -1.78,3.79 -3.55,5.05 z"
                   id="path4275" /></g></g></g><path
             inkscape:connector-curvature="0"
             d="m 39.59,52.99 c 5.72,4.39 20.66,15.8 27.53,21.04 2.18,1.67 4.63,3.38 9.59,2.48 4.96,-0.9 35.97,-8.94 35.97,-8.94 2.82,-0.74 5.96,-0.94 8.86,-0.55 1.06,0.14 2.09,0.47 3.02,0.97 0.33,0.18 0.68,0.36 0.98,0.6 0.16,0.13 0.27,0.3 0.44,0.41 2.29,1.55 0.88,-3.09 0.62,-3.73 -0.63,-1.53 -1.5,-2.96 -2.5,-4.28 -0.8,-1.04 -1.69,-2.01 -2.66,-2.91 C 110.88,48.34 99.21,39.9 87.56,31.5 c -3,-2.16 -5.94,-4.4 -9.05,-6.39 -1.54,-0.98 -3.1,-1.95 -4.73,-2.77 -5.43,-2.71 -11.5,-2.44 -17.36,-1.77 -10.67,1.22 -21.34,1.82 -31.58,5.33 -2.86,0.98 -6.3,2.82 -6.95,6.26 -0.26,1.39 -0.26,3.81 2.19,5.98 1.79,1.58 11.97,9.06 19.51,14.85 z"
             id="path4277"
             style="fill:#000000" /></g><g
           id="g4279"
           style=""><g
             id="g4281"
             style=""><g
               id="g4283"
               style=""><g
                 id="g4285"
                 style=""><path
                   style="fill:#ffffff"
                   inkscape:connector-curvature="0"
                   d="M 115.93,54.96 C 115.65,48.71 113.55,44.65 109.72,41.13 100.18,32.32 88.68,23.91 78.09,16.38 73.18,12.89 67.72,8.28 62.03,6.15 54.01,3.14 44.94,4.21 36.36,5.43 c -3.76,0.53 -7.53,1.13 -11.22,2 -4.28,1.02 -9.37,2.23 -13,4.8 -3.26,2.31 -2.86,5.21 -1.26,7.88 0.23,1.23 0.01,2.4 0.02,3.65 0.02,2.36 -0.25,4.72 -0.83,7 -0.35,1.41 -0.84,2.77 -1.31,4.15 -1.82,5.34 3.23,9.81 6.98,12.91 2.1,1.73 4.34,3.29 6.45,5.01 8.19,6.67 16.6,12.7 24.98,19.05 9.83,7.45 13.59,10.04 25.86,5.85 3.31,-1.13 6.69,-2.03 10.09,-2.9 4.8,-1.23 11.17,-2.4 15.84,-4.04 4.74,-1.66 10.84,-3.86 14.32,-7.65 1.73,-1.89 2.48,-4.6 2.5,-7.12 0.11,-0.31 0.17,-0.66 0.15,-1.06 z"
                   id="path4287" /><path
                   style="fill:#bdcf46"
                   inkscape:connector-curvature="0"
                   d="m 19.32,14.65 c 4.72,-1.99 23.27,-4.87 27.35,-5.34 3.47,-0.4 7.84,-0.96 11.28,-0.45 1.38,0.23 5.85,2.56 10.48,5.71 9.47,6.44 34.45,25.17 36.02,26.62 0.42,0.39 3.85,3.66 2.12,3.64 -1.75,-0.02 -3.49,0.1 -5.23,0.3 -2.96,0.35 -20.23,4.46 -28.07,6.38 -1.55,0.38 -5.75,1.16 -6.91,1.39 -3.28,0.67 -5.97,-0.38 -8.66,-2.26 -5.59,-3.9 -40.37,-30.7 -41.28,-32.59 -0.62,-1.35 0.7,-2.48 2.9,-3.4 z"
                   id="path4289" /><path
                   style="fill:#2f2f2f"
                   inkscape:connector-curvature="0"
                   d="M 116.78,48.39 C 115.7,45.55 113.15,43.3 110.83,41.16 100.27,31.41 89.16,23.43 77.51,15.03 74.52,12.87 71.59,10.79 68.48,8.8 66.94,7.82 65.03,6.99 63.39,6.17 57.96,3.46 52.33,3.66 46.47,4.33 35.8,5.55 25.5,5.91 15.25,9.42 12.4,10.4 9.6,11.75 8.95,15.19 c -0.26,1.39 0.5,3.74 1.01,5 0.39,0.96 -2.9,12.98 -3.38,14.42 -1.22,3.59 0.54,6.81 2.99,9.5 1.34,1.48 39.08,30.57 40.03,31.26 3.6,2.65 6.45,4.46 9.5,5.33 3.85,1.11 8.03,0.69 14.43,-1.49 2.58,-0.88 23.26,-6.01 34.77,-10.56 3.92,-1.55 6.17,-3.63 7.09,-4.64 1.12,-1.22 1.84,-2.77 2.24,-4.4 0.24,-0.99 0.35,-2.02 0.37,-3.02 0.09,-0.31 -0.44,-6.14 -1.22,-8.2 z M 19.32,14.65 c 4.72,-1.99 23.27,-4.87 27.35,-5.34 3.47,-0.4 7.84,-0.96 11.28,-0.45 1.38,0.23 5.85,2.56 10.48,5.71 9.47,6.44 34.45,25.17 36.02,26.62 0.42,0.39 3.85,3.66 2.12,3.64 -1.75,-0.02 -3.49,0.1 -5.23,0.3 -2.96,0.35 -20.23,4.46 -28.07,6.38 -1.55,0.38 -5.75,1.16 -6.91,1.39 -3.28,0.67 -5.97,-0.38 -8.66,-2.26 -5.59,-3.9 -40.37,-30.7 -41.28,-32.59 -0.62,-1.35 0.7,-2.48 2.9,-3.4 z m -3.98,27.77 c -0.97,-0.98 -4.78,-3.5 -3.74,-6.68 1.12,-3.44 2.19,-9.01 2.43,-12.68 4.29,3.45 44.33,34.01 46.82,34.72 1.55,4.82 1.57,10.23 -0.15,15 -0.24,0.66 -0.43,1.3 -0.71,1.94 -1.11,-0.41 -2.18,-0.99 -3.34,-1.7 C 54.8,71.86 18.58,45.68 15.34,42.42 Z m 93.35,20.04 c -3.6,2.56 -9.03,3.6 -12.59,4.65 -7.62,2.26 -15.31,4.32 -23.01,6.28 -2.29,0.58 -4.61,1.28 -6.95,1.67 0.43,-0.95 0.8,-1.93 1.06,-2.96 0.69,-2.72 0.82,-5.64 0.52,-8.43 -0.16,-1.43 -0.21,-4.04 -0.55,-5.43 0.4,-0.03 9.83,-2.26 17.28,-4.15 7.58,-1.93 16.37,-4.6 21.65,-4.71 2.09,-0.04 3.63,0.92 4.33,1.5 1.84,1.51 2.26,4.3 1.8,6.52 -0.45,2.18 -1.78,3.81 -3.54,5.06 z"
                   id="path4291" /></g></g></g><path
             inkscape:connector-curvature="0"
             d="m 29.81,35.98 c 5.73,4.39 20.66,15.8 27.53,21.04 2.18,1.67 4.63,3.38 9.59,2.48 4.96,-0.9 35.97,-8.94 35.97,-8.94 2.83,-0.74 5.96,-0.94 8.86,-0.55 1.05,0.14 2.08,0.47 3.02,0.97 0.33,0.18 0.68,0.36 0.98,0.6 0.16,0.13 0.27,0.3 0.44,0.42 2.29,1.55 0.88,-3.1 0.62,-3.73 -0.63,-1.53 -1.5,-2.96 -2.5,-4.28 -0.8,-1.04 -1.69,-2.01 -2.65,-2.91 C 101.11,31.33 89.43,22.89 77.79,14.49 74.8,12.33 71.85,10.09 68.73,8.1 67.19,7.13 65.64,6.16 64,5.34 58.57,2.63 52.5,2.9 46.64,3.57 35.97,4.8 25.31,5.4 15.07,8.9 c -2.86,0.98 -6.31,2.82 -6.96,6.26 -0.26,1.39 -0.26,3.81 2.19,5.98 1.79,1.58 11.97,9.06 19.51,14.84 z"
             id="path4293"
             style="fill:#000000" /></g><g
           id="g4295"
           style=""><path
             style="fill:#ffffff"
             inkscape:connector-curvature="0"
             d="m 39.65,24.54 c -0.87,-0.1 -1.71,-0.35 -2.51,-0.82 -1.61,-0.95 -3.42,-2.35 -4.43,-3.83 -1.19,-1.74 0.2,-2.38 1.95,-2.82 2.42,-0.6 4.91,-0.99 7.4,-1.32 2.56,-0.34 5.18,-0.54 7.74,-0.88 1.96,-0.27 3.97,-0.45 5.91,-0.64 1.17,-0.1 2.41,-0.3 3.56,0.06 1.18,0.37 2.24,1.19 3.14,1.96 1,0.86 2.08,1.65 2.91,2.66 0.23,0.29 0.49,0.56 0.57,0.93 0.05,0.22 0.07,0.36 -0.05,0.55 -0.33,0.48 -1.22,0.81 -1.78,0.87 -3.1,0.35 -6.03,1.22 -9.08,1.77 -2.69,0.48 -5.48,0.6 -8.2,0.92 -1.39,0.17 -2.79,0.27 -4.19,0.41 -0.98,0.11 -1.94,0.3 -2.94,0.18 z"
             id="path4297" /></g></g></g></g></svg>